<?xml version="1.0" encoding="UTF-8" standalone="no"?>
<!DOCTYPE svg PUBLIC "-//W3C//DTD SVG 1.1//EN"
 "http://www.w3.org/Graphics/SVG/1.1/DTD/svg11.dtd">
<!-- Generated by graphviz version 2.30.1 (20130824.0405)
 -->
<!-- Title: GraphLinesBasic Pages: 1 -->
<svg width="524pt" height="320pt"
 viewBox="0.00 0.00 524.00 319.80" xmlns="http://www.w3.org/2000/svg" xmlns:xlink="http://www.w3.org/1999/xlink">
<g id="graph0" class="graph" transform="scale(1 1) rotate(0) translate(4 315.8)">
<title>GraphLinesBasic</title>
<polygon fill="white" stroke="white" points="-4,5 -4,-315.8 521,-315.8 521,5 -4,5"/>
<text text-anchor="middle" x="258" y="-6.8" font-family="Helvetica,sans-Serif" font-size="14.00">Blast Lines &#45; basic</text>
<g id="clust1" class="cluster"><title>cluster0</title>
<polygon fill="#b3b3b3" stroke="#7f7f7f" points="8,-32.8 8,-303.8 174,-303.8 174,-32.8 8,-32.8"/>
<text text-anchor="middle" x="91" y="-285.8" font-family="Helvetica,sans-Serif" font-size="14.00">Facebook</text>
</g>
<g id="clust2" class="cluster"><title>cluster1</title>
<polygon fill="#b3b3b3" stroke="#7f7f7f" points="182,-32.8 182,-303.8 328,-303.8 328,-32.8 182,-32.8"/>
<text text-anchor="middle" x="255" y="-285.8" font-family="Helvetica,sans-Serif" font-size="14.00">Twitter</text>
</g>
<g id="clust3" class="cluster"><title>cluster2</title>
<polygon fill="#b3b3b3" stroke="#7f7f7f" points="336,-97.8 336,-303.8 508,-303.8 508,-97.8 336,-97.8"/>
<text text-anchor="middle" x="422" y="-285.8" font-family="Helvetica,sans-Serif" font-size="14.00">Billing</text>
</g>
<!-- VerifyFacebookToken -->
<g id="node1" class="node"><title>VerifyFacebookToken</title>
<path fill="white" stroke="white" d="M153.396,-271.8C153.396,-271.8 28.6035,-271.8 28.6035,-271.8 22.6035,-271.8 16.6035,-265.8 16.6035,-259.8 16.6035,-259.8 16.6035,-247.8 16.6035,-247.8 16.6035,-241.8 22.6035,-235.8 28.6035,-235.8 28.6035,-235.8 153.396,-235.8 153.396,-235.8 159.396,-235.8 165.396,-241.8 165.396,-247.8 165.396,-247.8 165.396,-259.8 165.396,-259.8 165.396,-265.8 159.396,-271.8 153.396,-271.8"/>
<text text-anchor="middle" x="91" y="-248.2" font-family="Helvetica,sans-Serif" font-size="14.00">VerifyFacebookToken</text>
</g>
<!-- CanPost -->
<g id="node2" class="node"><title>CanPost</title>
<path fill="white" stroke="white" d="M113.275,-206.8C113.275,-206.8 68.7253,-206.8 68.7253,-206.8 62.7253,-206.8 56.7253,-200.8 56.7253,-194.8 56.7253,-194.8 56.7253,-182.8 56.7253,-182.8 56.7253,-176.8 62.7253,-170.8 68.7253,-170.8 68.7253,-170.8 113.275,-170.8 113.275,-170.8 119.275,-170.8 125.275,-176.8 125.275,-182.8 125.275,-182.8 125.275,-194.8 125.275,-194.8 125.275,-200.8 119.275,-206.8 113.275,-206.8"/>
<text text-anchor="middle" x="91" y="-183.2" font-family="Helvetica,sans-Serif" font-size="14.00">CanPost</text>
</g>
<!-- VerifyFacebookToken&#45;&gt;CanPost -->
<g id="edge1" class="edge"><title>VerifyFacebookToken&#45;&gt;CanPost</title>
<path fill="none" stroke="black" d="M91,-235.585C91,-229.89 91,-223.405 91,-217.143"/>
<polygon fill="black" stroke="black" points="94.5001,-216.994 91,-206.994 87.5001,-216.994 94.5001,-216.994"/>
</g>
<!-- ShouldPost -->
<g id="node3" class="node"><title>ShouldPost</title>
<path fill="white" stroke="white" d="M122.208,-141.8C122.208,-141.8 59.7925,-141.8 59.7925,-141.8 53.7925,-141.8 47.7925,-135.8 47.7925,-129.8 47.7925,-129.8 47.7925,-117.8 47.7925,-117.8 47.7925,-111.8 53.7925,-105.8 59.7925,-105.8 59.7925,-105.8 122.208,-105.8 122.208,-105.8 128.208,-105.8 134.208,-111.8 134.208,-117.8 134.208,-117.8 134.208,-129.8 134.208,-129.8 134.208,-135.8 128.208,-141.8 122.208,-141.8"/>
<text text-anchor="middle" x="91" y="-118.2" font-family="Helvetica,sans-Serif" font-size="14.00">ShouldPost</text>
</g>
<!-- CanPost&#45;&gt;ShouldPost -->
<g id="edge2" class="edge"><title>CanPost&#45;&gt;ShouldPost</title>
<path fill="none" stroke="black" d="M91,-170.585C91,-164.89 91,-158.405 91,-152.143"/>
<polygon fill="black" stroke="black" points="94.5001,-151.994 91,-141.994 87.5001,-151.994 94.5001,-151.994"/>
</g>
<!-- Post -->
<g id="node4" class="node"><title>Post</title>
<path fill="#00ee00" stroke="#00ee00" d="M106,-76.8C106,-76.8 76,-76.8 76,-76.8 70,-76.8 64,-70.8 64,-64.8 64,-64.8 64,-52.8 64,-52.8 64,-46.8 70,-40.8 76,-40.8 76,-40.8 106,-40.8 106,-40.8 112,-40.8 118,-46.8 118,-52.8 118,-52.8 118,-64.8 118,-64.8 118,-70.8 112,-76.8 106,-76.8"/>
<text text-anchor="middle" x="91" y="-53.2" font-family="Helvetica,sans-Serif" font-size="14.00">Post</text>
</g>
<!-- ShouldPost&#45;&gt;Post -->
<g id="edge3" class="edge"><title>ShouldPost&#45;&gt;Post</title>
<path fill="none" stroke="black" d="M91,-105.585C91,-99.8902 91,-93.4052 91,-87.1432"/>
<polygon fill="black" stroke="black" points="94.5001,-86.9942 91,-76.9942 87.5001,-86.9942 94.5001,-86.9942"/>
</g>
<!-- VerifyTwitterToken -->
<g id="node5" class="node"><title>VerifyTwitterToken</title>
<path fill="white" stroke="white" d="M307.212,-271.8C307.212,-271.8 202.788,-271.8 202.788,-271.8 196.788,-271.8 190.788,-265.8 190.788,-259.8 190.788,-259.8 190.788,-247.8 190.788,-247.8 190.788,-241.8 196.788,-235.8 202.788,-235.8 202.788,-235.8 307.212,-235.8 307.212,-235.8 313.212,-235.8 319.212,-241.8 319.212,-247.8 319.212,-247.8 319.212,-259.8 319.212,-259.8 319.212,-265.8 313.212,-271.8 307.212,-271.8"/>
<text text-anchor="middle" x="255" y="-248.2" font-family="Helvetica,sans-Serif" font-size="14.00">VerifyTwitterToken</text>
</g>
<!-- CanTweet -->
<g id="node6" class="node"><title>CanTweet</title>
<path fill="white" stroke="white" d="M282.281,-206.8C282.281,-206.8 227.719,-206.8 227.719,-206.8 221.719,-206.8 215.719,-200.8 215.719,-194.8 215.719,-194.8 215.719,-182.8 215.719,-182.8 215.719,-176.8 221.719,-170.8 227.719,-170.8 227.719,-170.8 282.281,-170.8 282.281,-170.8 288.281,-170.8 294.281,-176.8 294.281,-182.8 294.281,-182.8 294.281,-194.8 294.281,-194.8 294.281,-200.8 288.281,-206.8 282.281,-206.8"/>
<text text-anchor="middle" x="255" y="-183.2" font-family="Helvetica,sans-Serif" font-size="14.00">CanTweet</text>
</g>
<!-- VerifyTwitterToken&#45;&gt;CanTweet -->
<g id="edge4" class="edge"><title>VerifyTwitterToken&#45;&gt;CanTweet</title>
<path fill="none" stroke="black" d="M255,-235.585C255,-229.89 255,-223.405 255,-217.143"/>
<polygon fill="black" stroke="black" points="258.5,-216.994 255,-206.994 251.5,-216.994 258.5,-216.994"/>
</g>
<!-- ShouldTweet -->
<g id="node7" class="node"><title>ShouldTweet</title>
<path fill="white" stroke="white" d="M291.214,-141.8C291.214,-141.8 218.786,-141.8 218.786,-141.8 212.786,-141.8 206.786,-135.8 206.786,-129.8 206.786,-129.8 206.786,-117.8 206.786,-117.8 206.786,-111.8 212.786,-105.8 218.786,-105.8 218.786,-105.8 291.214,-105.8 291.214,-105.8 297.214,-105.8 303.214,-111.8 303.214,-117.8 303.214,-117.8 303.214,-129.8 303.214,-129.8 303.214,-135.8 297.214,-141.8 291.214,-141.8"/>
<text text-anchor="middle" x="255" y="-118.2" font-family="Helvetica,sans-Serif" font-size="14.00">ShouldTweet</text>
</g>
<!-- CanTweet&#45;&gt;ShouldTweet -->
<g id="edge5" class="edge"><title>CanTweet&#45;&gt;ShouldTweet</title>
<path fill="none" stroke="black" d="M255,-170.585C255,-164.89 255,-158.405 255,-152.143"/>
<polygon fill="black" stroke="black" points="258.5,-151.994 255,-141.994 251.5,-151.994 258.5,-151.994"/>
</g>
<!-- Tweet -->
<g id="node8" class="node"><title>Tweet</title>
<path fill="#00ee00" stroke="#00ee00" d="M270,-76.8C270,-76.8 240,-76.8 240,-76.8 234,-76.8 228,-70.8 228,-64.8 228,-64.8 228,-52.8 228,-52.8 228,-46.8 234,-40.8 240,-40.8 240,-40.8 270,-40.8 270,-40.8 276,-40.8 282,-46.8 282,-52.8 282,-52.8 282,-64.8 282,-64.8 282,-70.8 276,-76.8 270,-76.8"/>
<text text-anchor="middle" x="255" y="-53.2" font-family="Helvetica,sans-Serif" font-size="14.00">Tweet</text>
</g>
<!-- ShouldTweet&#45;&gt;Tweet -->
<g id="edge6" class="edge"><title>ShouldTweet&#45;&gt;Tweet</title>
<path fill="none" stroke="black" d="M255,-105.585C255,-99.8902 255,-93.4052 255,-87.1432"/>
<polygon fill="black" stroke="black" points="258.5,-86.9942 255,-76.9942 251.5,-86.9942 258.5,-86.9942"/>
</g>
<!-- VerifyCreditCard -->
<g id="node9" class="node"><title>VerifyCreditCard</title>
<path fill="white" stroke="white" d="M469.033,-271.8C469.033,-271.8 374.967,-271.8 374.967,-271.8 368.967,-271.8 362.967,-265.8 362.967,-259.8 362.967,-259.8 362.967,-247.8 362.967,-247.8 362.967,-241.8 368.967,-235.8 374.967,-235.8 374.967,-235.8 469.033,-235.8 469.033,-235.8 475.033,-235.8 481.033,-241.8 481.033,-247.8 481.033,-247.8 481.033,-259.8 481.033,-259.8 481.033,-265.8 475.033,-271.8 469.033,-271.8"/>
<text text-anchor="middle" x="422" y="-248.2" font-family="Helvetica,sans-Serif" font-size="14.00">VerifyCreditCard</text>
</g>
<!-- BillCreditCard -->
<g id="node10" class="node"><title>BillCreditCard</title>
<path fill="white" stroke="white" d="M461.269,-206.8C461.269,-206.8 382.731,-206.8 382.731,-206.8 376.731,-206.8 370.731,-200.8 370.731,-194.8 370.731,-194.8 370.731,-182.8 370.731,-182.8 370.731,-176.8 376.731,-170.8 382.731,-170.8 382.731,-170.8 461.269,-170.8 461.269,-170.8 467.269,-170.8 473.269,-176.8 473.269,-182.8 473.269,-182.8 473.269,-194.8 473.269,-194.8 473.269,-200.8 467.269,-206.8 461.269,-206.8"/>
<text text-anchor="middle" x="422" y="-183.2" font-family="Helvetica,sans-Serif" font-size="14.00">BillCreditCard</text>
</g>
<!-- VerifyCreditCard&#45;&gt;BillCreditCard -->
<g id="edge7" class="edge"><title>VerifyCreditCard&#45;&gt;BillCreditCard</title>
<path fill="none" stroke="black" d="M422,-235.585C422,-229.89 422,-223.405 422,-217.143"/>
<polygon fill="black" stroke="black" points="425.5,-216.994 422,-206.994 418.5,-216.994 425.5,-216.994"/>
</g>
<!-- SendBillingNotification -->
<g id="node11" class="node"><title>SendBillingNotification</title>
<path fill="gold" stroke="gold" d="M487.477,-141.8C487.477,-141.8 356.523,-141.8 356.523,-141.8 350.523,-141.8 344.523,-135.8 344.523,-129.8 344.523,-129.8 344.523,-117.8 344.523,-117.8 344.523,-111.8 350.523,-105.8 356.523,-105.8 356.523,-105.8 487.477,-105.8 487.477,-105.8 493.477,-105.8 499.477,-111.8 499.477,-117.8 499.477,-117.8 499.477,-129.8 499.477,-129.8 499.477,-135.8 493.477,-141.8 487.477,-141.8"/>
<text text-anchor="middle" x="422" y="-118.2" font-family="Helvetica,sans-Serif" font-size="14.00">SendBillingNotification</text>
</g>
<!-- BillCreditCard&#45;&gt;SendBillingNotification -->
<g id="edge8" class="edge"><title>BillCreditCard&#45;&gt;SendBillingNotification</title>
<path fill="none" stroke="black" d="M422,-170.585C422,-164.89 422,-158.405 422,-152.143"/>
<polygon fill="black" stroke="black" points="425.5,-151.994 422,-141.994 418.5,-151.994 425.5,-151.994"/>
</g>
</g>
</svg>
