<?xml version="1.0" encoding="UTF-8" standalone="no"?>
<!DOCTYPE svg PUBLIC "-//W3C//DTD SVG 1.1//EN"
 "http://www.w3.org/Graphics/SVG/1.1/DTD/svg11.dtd">
<!-- Generated by graphviz version 2.30.1 (20130824.0405)
 -->
<!-- Title: GraphLines Pages: 1 -->
<svg width="1531pt" height="580pt"
 viewBox="0.00 0.00 1531.00 579.80" xmlns="http://www.w3.org/2000/svg" xmlns:xlink="http://www.w3.org/1999/xlink">
<g id="graph0" class="graph" transform="scale(1 1) rotate(0) translate(4 575.8)">
<title>GraphLines</title>
<polygon fill="white" stroke="white" points="-4,5 -4,-575.8 1528,-575.8 1528,5 -4,5"/>
<text text-anchor="middle" x="761.5" y="-6.8" font-family="Helvetica,sans-Serif" font-size="14.00">Blast Lines</text>
<g id="clust1" class="cluster"><title>cluster0</title>
<polygon fill="#b3b3b3" stroke="#7f7f7f" points="8,-32.8 8,-563.8 545,-563.8 545,-32.8 8,-32.8"/>
<text text-anchor="middle" x="276.5" y="-545.8" font-family="Helvetica,sans-Serif" font-size="14.00">Facebook</text>
</g>
<g id="clust2" class="cluster"><title>cluster1</title>
<polygon fill="#b3b3b3" stroke="#7f7f7f" points="553,-32.8 553,-563.8 1008,-563.8 1008,-32.8 553,-32.8"/>
<text text-anchor="middle" x="780.5" y="-545.8" font-family="Helvetica,sans-Serif" font-size="14.00">Twitter</text>
</g>
<g id="clust3" class="cluster"><title>cluster2</title>
<polygon fill="#b3b3b3" stroke="#7f7f7f" points="1016,-162.8 1016,-563.8 1515,-563.8 1515,-162.8 1016,-162.8"/>
<text text-anchor="middle" x="1265.5" y="-545.8" font-family="Helvetica,sans-Serif" font-size="14.00">Billing</text>
</g>
<!-- PASS Facebook VerifyFacebookToken -->
<g id="node1" class="node"><title>PASS Facebook VerifyFacebookToken</title>
<path fill="white" stroke="white" d="M259.582,-466.8C259.582,-466.8 28.4185,-466.8 28.4185,-466.8 22.4185,-466.8 16.4185,-460.8 16.4185,-454.8 16.4185,-454.8 16.4185,-442.8 16.4185,-442.8 16.4185,-436.8 22.4185,-430.8 28.4185,-430.8 28.4185,-430.8 259.582,-430.8 259.582,-430.8 265.582,-430.8 271.582,-436.8 271.582,-442.8 271.582,-442.8 271.582,-454.8 271.582,-454.8 271.582,-460.8 265.582,-466.8 259.582,-466.8"/>
<text text-anchor="middle" x="144" y="-443.2" font-family="Helvetica,sans-Serif" font-size="14.00">PASS Facebook VerifyFacebookToken</text>
</g>
<!-- PASS Facebook CanPost -->
<g id="node4" class="node"><title>PASS Facebook CanPost</title>
<path fill="white" stroke="white" d="M216.458,-336.8C216.458,-336.8 65.5423,-336.8 65.5423,-336.8 59.5423,-336.8 53.5423,-330.8 53.5423,-324.8 53.5423,-324.8 53.5423,-312.8 53.5423,-312.8 53.5423,-306.8 59.5423,-300.8 65.5423,-300.8 65.5423,-300.8 216.458,-300.8 216.458,-300.8 222.458,-300.8 228.458,-306.8 228.458,-312.8 228.458,-312.8 228.458,-324.8 228.458,-324.8 228.458,-330.8 222.458,-336.8 216.458,-336.8"/>
<text text-anchor="middle" x="141" y="-313.2" font-family="Helvetica,sans-Serif" font-size="14.00">PASS Facebook CanPost</text>
</g>
<!-- PASS Facebook VerifyFacebookToken&#45;&gt;PASS Facebook CanPost -->
<g id="edge1" class="edge"><title>PASS Facebook VerifyFacebookToken&#45;&gt;PASS Facebook CanPost</title>
<path fill="none" stroke="black" d="M117.793,-430.721C108.46,-423.104 99.0242,-413.249 94,-401.8 87.5706,-387.149 87.7977,-380.549 94,-365.8 97.372,-357.781 102.9,-350.461 109.001,-344.134"/>
<polygon fill="black" stroke="black" points="111.486,-346.602 116.333,-337.181 106.669,-341.523 111.486,-346.602"/>
</g>
<!-- FAIL Facebook CanPost -->
<g id="node5" class="node"><title>FAIL Facebook CanPost</title>
<path fill="white" stroke="white" d="M401.434,-336.8C401.434,-336.8 258.566,-336.8 258.566,-336.8 252.566,-336.8 246.566,-330.8 246.566,-324.8 246.566,-324.8 246.566,-312.8 246.566,-312.8 246.566,-306.8 252.566,-300.8 258.566,-300.8 258.566,-300.8 401.434,-300.8 401.434,-300.8 407.434,-300.8 413.434,-306.8 413.434,-312.8 413.434,-312.8 413.434,-324.8 413.434,-324.8 413.434,-330.8 407.434,-336.8 401.434,-336.8"/>
<text text-anchor="middle" x="330" y="-313.2" font-family="Helvetica,sans-Serif" font-size="14.00">FAIL Facebook CanPost</text>
</g>
<!-- PASS Facebook VerifyFacebookToken&#45;&gt;FAIL Facebook CanPost -->
<g id="edge2" class="edge"><title>PASS Facebook VerifyFacebookToken&#45;&gt;FAIL Facebook CanPost</title>
<path fill="none" stroke="black" d="M247.224,-430.706C279.042,-423.358 308.497,-413.689 319,-401.8 331.915,-387.18 334.223,-364.993 333.543,-347.384"/>
<polygon fill="black" stroke="black" points="337.013,-346.841 332.802,-337.119 330.031,-347.345 337.013,-346.841"/>
</g>
<!-- ERROR Facebook CanPost -->
<g id="node6" class="node"><title>ERROR Facebook CanPost</title>
<path fill="white" stroke="white" d="M280.139,-401.8C280.139,-401.8 115.861,-401.8 115.861,-401.8 109.861,-401.8 103.861,-395.8 103.861,-389.8 103.861,-389.8 103.861,-377.8 103.861,-377.8 103.861,-371.8 109.861,-365.8 115.861,-365.8 115.861,-365.8 280.139,-365.8 280.139,-365.8 286.139,-365.8 292.139,-371.8 292.139,-377.8 292.139,-377.8 292.139,-389.8 292.139,-389.8 292.139,-395.8 286.139,-401.8 280.139,-401.8"/>
<text text-anchor="middle" x="198" y="-378.2" font-family="Helvetica,sans-Serif" font-size="14.00">ERROR Facebook CanPost</text>
</g>
<!-- PASS Facebook VerifyFacebookToken&#45;&gt;ERROR Facebook CanPost -->
<g id="edge3" class="edge"><title>PASS Facebook VerifyFacebookToken&#45;&gt;ERROR Facebook CanPost</title>
<path fill="none" stroke="black" d="M158.756,-430.585C164.232,-424.196 170.561,-416.812 176.517,-409.864"/>
<polygon fill="black" stroke="black" points="179.412,-411.865 183.262,-401.994 174.097,-407.309 179.412,-411.865"/>
</g>
<!-- FAIL Facebook VerifyFacebookToken -->
<g id="node2" class="node"><title>FAIL Facebook VerifyFacebookToken</title>
<path fill="white" stroke="white" d="M524.557,-466.8C524.557,-466.8 301.443,-466.8 301.443,-466.8 295.443,-466.8 289.443,-460.8 289.443,-454.8 289.443,-454.8 289.443,-442.8 289.443,-442.8 289.443,-436.8 295.443,-430.8 301.443,-430.8 301.443,-430.8 524.557,-430.8 524.557,-430.8 530.557,-430.8 536.557,-436.8 536.557,-442.8 536.557,-442.8 536.557,-454.8 536.557,-454.8 536.557,-460.8 530.557,-466.8 524.557,-466.8"/>
<text text-anchor="middle" x="413" y="-443.2" font-family="Helvetica,sans-Serif" font-size="14.00">FAIL Facebook VerifyFacebookToken</text>
</g>
<!-- ERROR Facebook VerifyFacebookToken -->
<g id="node3" class="node"><title>ERROR Facebook VerifyFacebookToken</title>
<path fill="white" stroke="white" d="M389.262,-531.8C389.262,-531.8 144.738,-531.8 144.738,-531.8 138.738,-531.8 132.738,-525.8 132.738,-519.8 132.738,-519.8 132.738,-507.8 132.738,-507.8 132.738,-501.8 138.738,-495.8 144.738,-495.8 144.738,-495.8 389.262,-495.8 389.262,-495.8 395.262,-495.8 401.262,-501.8 401.262,-507.8 401.262,-507.8 401.262,-519.8 401.262,-519.8 401.262,-525.8 395.262,-531.8 389.262,-531.8"/>
<text text-anchor="middle" x="267" y="-508.2" font-family="Helvetica,sans-Serif" font-size="14.00">ERROR Facebook VerifyFacebookToken</text>
</g>
<!-- ERROR Facebook VerifyFacebookToken&#45;&gt;PASS Facebook VerifyFacebookToken -->
<g id="edge4" class="edge"><title>ERROR Facebook VerifyFacebookToken&#45;&gt;PASS Facebook VerifyFacebookToken</title>
<path fill="none" stroke="black" d="M233.714,-495.751C219.221,-488.328 202.057,-479.537 186.644,-471.642"/>
<polygon fill="black" stroke="black" points="187.808,-468.306 177.312,-466.862 184.617,-474.536 187.808,-468.306"/>
</g>
<!-- ERROR Facebook VerifyFacebookToken&#45;&gt;FAIL Facebook VerifyFacebookToken -->
<g id="edge5" class="edge"><title>ERROR Facebook VerifyFacebookToken&#45;&gt;FAIL Facebook VerifyFacebookToken</title>
<path fill="none" stroke="black" d="M306.51,-495.751C324.282,-488.082 345.435,-478.955 364.188,-470.863"/>
<polygon fill="black" stroke="black" points="365.664,-474.038 373.459,-466.862 362.89,-467.611 365.664,-474.038"/>
</g>
<!-- ERROR Facebook VerifyFacebookToken&#45;&gt;ERROR Facebook VerifyFacebookToken -->
<g id="edge6" class="edge"><title>ERROR Facebook VerifyFacebookToken&#45;&gt;ERROR Facebook VerifyFacebookToken</title>
<path fill="none" stroke="black" d="M401.399,-522.985C412.265,-520.987 419,-517.925 419,-513.8 419,-511.157 416.236,-508.951 411.392,-507.182"/>
<polygon fill="black" stroke="black" points="411.955,-503.713 401.399,-504.615 410.214,-510.493 411.955,-503.713"/>
</g>
<!-- PASS Facebook ShouldPost -->
<g id="node7" class="node"><title>PASS Facebook ShouldPost</title>
<path fill="white" stroke="white" d="M208.39,-206.8C208.39,-206.8 39.6096,-206.8 39.6096,-206.8 33.6096,-206.8 27.6096,-200.8 27.6096,-194.8 27.6096,-194.8 27.6096,-182.8 27.6096,-182.8 27.6096,-176.8 33.6096,-170.8 39.6096,-170.8 39.6096,-170.8 208.39,-170.8 208.39,-170.8 214.39,-170.8 220.39,-176.8 220.39,-182.8 220.39,-182.8 220.39,-194.8 220.39,-194.8 220.39,-200.8 214.39,-206.8 208.39,-206.8"/>
<text text-anchor="middle" x="124" y="-183.2" font-family="Helvetica,sans-Serif" font-size="14.00">PASS Facebook ShouldPost</text>
</g>
<!-- PASS Facebook CanPost&#45;&gt;PASS Facebook ShouldPost -->
<g id="edge7" class="edge"><title>PASS Facebook CanPost&#45;&gt;PASS Facebook ShouldPost</title>
<path fill="none" stroke="black" d="M105.285,-300.719C94.1525,-293.465 83.1809,-283.854 77,-271.8 69.6997,-257.563 70.7977,-250.549 77,-235.8 80.372,-227.781 85.8997,-220.461 92.0014,-214.134"/>
<polygon fill="black" stroke="black" points="94.486,-216.602 99.3331,-207.181 89.6689,-211.523 94.486,-216.602"/>
</g>
<!-- FAIL Facebook ShouldPost -->
<g id="node8" class="node"><title>FAIL Facebook ShouldPost</title>
<path fill="white" stroke="white" d="M411.366,-206.8C411.366,-206.8 250.634,-206.8 250.634,-206.8 244.634,-206.8 238.634,-200.8 238.634,-194.8 238.634,-194.8 238.634,-182.8 238.634,-182.8 238.634,-176.8 244.634,-170.8 250.634,-170.8 250.634,-170.8 411.366,-170.8 411.366,-170.8 417.366,-170.8 423.366,-176.8 423.366,-182.8 423.366,-182.8 423.366,-194.8 423.366,-194.8 423.366,-200.8 417.366,-206.8 411.366,-206.8"/>
<text text-anchor="middle" x="331" y="-183.2" font-family="Helvetica,sans-Serif" font-size="14.00">FAIL Facebook ShouldPost</text>
</g>
<!-- PASS Facebook CanPost&#45;&gt;FAIL Facebook ShouldPost -->
<g id="edge8" class="edge"><title>PASS Facebook CanPost&#45;&gt;FAIL Facebook ShouldPost</title>
<path fill="none" stroke="black" d="M224.377,-300.781C267.73,-291.156 313.128,-279.536 320,-271.8 333.034,-257.127 335.288,-234.756 334.556,-217.085"/>
<polygon fill="black" stroke="black" points="338.023,-216.511 333.785,-206.801 331.043,-217.035 338.023,-216.511"/>
</g>
<!-- ERROR Facebook ShouldPost -->
<g id="node9" class="node"><title>ERROR Facebook ShouldPost</title>
<path fill="white" stroke="white" d="M281.57,-271.8C281.57,-271.8 98.4302,-271.8 98.4302,-271.8 92.4302,-271.8 86.4302,-265.8 86.4302,-259.8 86.4302,-259.8 86.4302,-247.8 86.4302,-247.8 86.4302,-241.8 92.4302,-235.8 98.4302,-235.8 98.4302,-235.8 281.57,-235.8 281.57,-235.8 287.57,-235.8 293.57,-241.8 293.57,-247.8 293.57,-247.8 293.57,-259.8 293.57,-259.8 293.57,-265.8 287.57,-271.8 281.57,-271.8"/>
<text text-anchor="middle" x="190" y="-248.2" font-family="Helvetica,sans-Serif" font-size="14.00">ERROR Facebook ShouldPost</text>
</g>
<!-- PASS Facebook CanPost&#45;&gt;ERROR Facebook ShouldPost -->
<g id="edge9" class="edge"><title>PASS Facebook CanPost&#45;&gt;ERROR Facebook ShouldPost</title>
<path fill="none" stroke="black" d="M154.389,-300.585C159.251,-294.335 164.853,-287.132 170.153,-280.318"/>
<polygon fill="black" stroke="black" points="173.25,-282.037 176.627,-271.994 167.725,-277.739 173.25,-282.037"/>
</g>
<!-- ERROR Facebook CanPost&#45;&gt;PASS Facebook CanPost -->
<g id="edge10" class="edge"><title>ERROR Facebook CanPost&#45;&gt;PASS Facebook CanPost</title>
<path fill="none" stroke="black" d="M182.424,-365.585C176.518,-359.057 169.672,-351.49 163.268,-344.412"/>
<polygon fill="black" stroke="black" points="165.861,-342.061 156.557,-336.994 160.67,-346.758 165.861,-342.061"/>
</g>
<!-- ERROR Facebook CanPost&#45;&gt;FAIL Facebook CanPost -->
<g id="edge11" class="edge"><title>ERROR Facebook CanPost&#45;&gt;FAIL Facebook CanPost</title>
<path fill="none" stroke="black" d="M233.721,-365.751C249.569,-358.188 268.391,-349.205 285.17,-341.196"/>
<polygon fill="black" stroke="black" points="286.733,-344.328 294.25,-336.862 283.718,-338.011 286.733,-344.328"/>
</g>
<!-- ERROR Facebook CanPost&#45;&gt;ERROR Facebook CanPost -->
<g id="edge12" class="edge"><title>ERROR Facebook CanPost&#45;&gt;ERROR Facebook CanPost</title>
<path fill="none" stroke="black" d="M292.373,-393.969C303.068,-392.065 310,-388.675 310,-383.8 310,-380.677 307.155,-378.163 302.299,-376.26"/>
<polygon fill="black" stroke="black" points="302.936,-372.808 292.373,-373.631 301.144,-379.575 302.936,-372.808"/>
</g>
<!-- PASS Facebook Post -->
<g id="node10" class="node"><title>PASS Facebook Post</title>
<path fill="#00ee00" stroke="#00ee00" d="M153.198,-76.8C153.198,-76.8 28.8023,-76.8 28.8023,-76.8 22.8023,-76.8 16.8023,-70.8 16.8023,-64.8 16.8023,-64.8 16.8023,-52.8 16.8023,-52.8 16.8023,-46.8 22.8023,-40.8 28.8023,-40.8 28.8023,-40.8 153.198,-40.8 153.198,-40.8 159.198,-40.8 165.198,-46.8 165.198,-52.8 165.198,-52.8 165.198,-64.8 165.198,-64.8 165.198,-70.8 159.198,-76.8 153.198,-76.8"/>
<text text-anchor="middle" x="91" y="-53.2" font-family="Helvetica,sans-Serif" font-size="14.00">PASS Facebook Post</text>
</g>
<!-- PASS Facebook ShouldPost&#45;&gt;PASS Facebook Post -->
<g id="edge13" class="edge"><title>PASS Facebook ShouldPost&#45;&gt;PASS Facebook Post</title>
<path fill="none" stroke="black" d="M76.8209,-170.709C64.2612,-163.753 52.1982,-154.321 45,-141.8 37.0256,-127.929 38.8771,-120.582 45,-105.8 48.355,-97.7003 53.9048,-90.2832 60.0099,-83.8795"/>
<polygon fill="black" stroke="black" points="62.5445,-86.2981 67.3336,-76.8474 57.6962,-81.2488 62.5445,-86.2981"/>
</g>
<!-- FAIL Facebook Post -->
<g id="node11" class="node"><title>FAIL Facebook Post</title>
<path fill="white" stroke="white" d="M313.174,-76.8C313.174,-76.8 196.826,-76.8 196.826,-76.8 190.826,-76.8 184.826,-70.8 184.826,-64.8 184.826,-64.8 184.826,-52.8 184.826,-52.8 184.826,-46.8 190.826,-40.8 196.826,-40.8 196.826,-40.8 313.174,-40.8 313.174,-40.8 319.174,-40.8 325.174,-46.8 325.174,-52.8 325.174,-52.8 325.174,-64.8 325.174,-64.8 325.174,-70.8 319.174,-76.8 313.174,-76.8"/>
<text text-anchor="middle" x="255" y="-53.2" font-family="Helvetica,sans-Serif" font-size="14.00">FAIL Facebook Post</text>
</g>
<!-- PASS Facebook ShouldPost&#45;&gt;FAIL Facebook Post -->
<g id="edge14" class="edge"><title>PASS Facebook ShouldPost&#45;&gt;FAIL Facebook Post</title>
<path fill="none" stroke="black" d="M204.189,-170.747C219.412,-164.058 233.76,-154.751 244,-141.8 256.026,-126.591 258.428,-104.623 258.011,-87.2518"/>
<polygon fill="black" stroke="black" points="261.499,-86.9218 257.449,-77.1315 254.509,-87.3104 261.499,-86.9218"/>
</g>
<!-- ERROR Facebook Post -->
<g id="node12" class="node"><title>ERROR Facebook Post</title>
<path fill="white" stroke="white" d="M205.376,-141.8C205.376,-141.8 66.624,-141.8 66.624,-141.8 60.624,-141.8 54.624,-135.8 54.624,-129.8 54.624,-129.8 54.624,-117.8 54.624,-117.8 54.624,-111.8 60.624,-105.8 66.624,-105.8 66.624,-105.8 205.376,-105.8 205.376,-105.8 211.376,-105.8 217.376,-111.8 217.376,-117.8 217.376,-117.8 217.376,-129.8 217.376,-129.8 217.376,-135.8 211.376,-141.8 205.376,-141.8"/>
<text text-anchor="middle" x="136" y="-118.2" font-family="Helvetica,sans-Serif" font-size="14.00">ERROR Facebook Post</text>
</g>
<!-- PASS Facebook ShouldPost&#45;&gt;ERROR Facebook Post -->
<g id="edge15" class="edge"><title>PASS Facebook ShouldPost&#45;&gt;ERROR Facebook Post</title>
<path fill="none" stroke="black" d="M127.279,-170.585C128.364,-164.89 129.599,-158.405 130.792,-152.143"/>
<polygon fill="black" stroke="black" points="134.292,-152.473 132.725,-141.994 127.416,-151.163 134.292,-152.473"/>
</g>
<!-- ERROR Facebook ShouldPost&#45;&gt;PASS Facebook ShouldPost -->
<g id="edge16" class="edge"><title>ERROR Facebook ShouldPost&#45;&gt;PASS Facebook ShouldPost</title>
<path fill="none" stroke="black" d="M171.965,-235.585C164.981,-228.918 156.861,-221.168 149.311,-213.96"/>
<polygon fill="black" stroke="black" points="151.663,-211.367 142.013,-206.994 146.83,-216.431 151.663,-211.367"/>
</g>
<!-- ERROR Facebook ShouldPost&#45;&gt;FAIL Facebook ShouldPost -->
<g id="edge17" class="edge"><title>ERROR Facebook ShouldPost&#45;&gt;FAIL Facebook ShouldPost</title>
<path fill="none" stroke="black" d="M228.157,-235.751C245.242,-228.118 265.562,-219.038 283.611,-210.974"/>
<polygon fill="black" stroke="black" points="285.111,-214.137 292.813,-206.862 282.255,-207.746 285.111,-214.137"/>
</g>
<!-- ERROR Facebook ShouldPost&#45;&gt;ERROR Facebook ShouldPost -->
<g id="edge18" class="edge"><title>ERROR Facebook ShouldPost&#45;&gt;ERROR Facebook ShouldPost</title>
<path fill="none" stroke="black" d="M293.702,-263.664C304.26,-261.713 311,-258.425 311,-253.8 311,-250.837 308.234,-248.423 303.47,-246.557"/>
<polygon fill="black" stroke="black" points="304.267,-243.148 293.702,-243.936 302.453,-249.908 304.267,-243.148"/>
</g>
<!-- ERROR Facebook Post&#45;&gt;PASS Facebook Post -->
<g id="edge19" class="edge"><title>ERROR Facebook Post&#45;&gt;PASS Facebook Post</title>
<path fill="none" stroke="black" d="M123.704,-105.585C119.239,-99.3346 114.094,-92.1323 109.227,-85.3177"/>
<polygon fill="black" stroke="black" points="111.942,-83.0972 103.282,-76.9942 106.246,-87.1659 111.942,-83.0972"/>
</g>
<!-- ERROR Facebook Post&#45;&gt;FAIL Facebook Post -->
<g id="edge20" class="edge"><title>ERROR Facebook Post&#45;&gt;FAIL Facebook Post</title>
<path fill="none" stroke="black" d="M168.203,-105.751C182.226,-98.3276 198.831,-89.5367 213.743,-81.6419"/>
<polygon fill="black" stroke="black" points="215.571,-84.6345 222.771,-76.8623 212.296,-78.448 215.571,-84.6345"/>
</g>
<!-- ERROR Facebook Post&#45;&gt;ERROR Facebook Post -->
<g id="edge21" class="edge"><title>ERROR Facebook Post&#45;&gt;ERROR Facebook Post</title>
<path fill="none" stroke="black" d="M217.561,-134.317C228.062,-132.493 235,-128.988 235,-123.8 235,-120.477 232.153,-117.844 227.345,-115.901"/>
<polygon fill="black" stroke="black" points="228.126,-112.487 217.561,-113.283 226.316,-119.249 228.126,-112.487"/>
</g>
<!-- PASS Twitter VerifyTwitterToken -->
<g id="node13" class="node"><title>PASS Twitter VerifyTwitterToken</title>
<path fill="white" stroke="white" d="M763.026,-466.8C763.026,-466.8 572.974,-466.8 572.974,-466.8 566.974,-466.8 560.974,-460.8 560.974,-454.8 560.974,-454.8 560.974,-442.8 560.974,-442.8 560.974,-436.8 566.974,-430.8 572.974,-430.8 572.974,-430.8 763.026,-430.8 763.026,-430.8 769.026,-430.8 775.026,-436.8 775.026,-442.8 775.026,-442.8 775.026,-454.8 775.026,-454.8 775.026,-460.8 769.026,-466.8 763.026,-466.8"/>
<text text-anchor="middle" x="668" y="-443.2" font-family="Helvetica,sans-Serif" font-size="14.00">PASS Twitter VerifyTwitterToken</text>
</g>
<!-- PASS Twitter CanTweet -->
<g id="node16" class="node"><title>PASS Twitter CanTweet</title>
<path fill="white" stroke="white" d="M748.096,-336.8C748.096,-336.8 607.904,-336.8 607.904,-336.8 601.904,-336.8 595.904,-330.8 595.904,-324.8 595.904,-324.8 595.904,-312.8 595.904,-312.8 595.904,-306.8 601.904,-300.8 607.904,-300.8 607.904,-300.8 748.096,-300.8 748.096,-300.8 754.096,-300.8 760.096,-306.8 760.096,-312.8 760.096,-312.8 760.096,-324.8 760.096,-324.8 760.096,-330.8 754.096,-336.8 748.096,-336.8"/>
<text text-anchor="middle" x="678" y="-313.2" font-family="Helvetica,sans-Serif" font-size="14.00">PASS Twitter CanTweet</text>
</g>
<!-- PASS Twitter VerifyTwitterToken&#45;&gt;PASS Twitter CanTweet -->
<g id="edge22" class="edge"><title>PASS Twitter VerifyTwitterToken&#45;&gt;PASS Twitter CanTweet</title>
<path fill="none" stroke="black" d="M650.157,-430.702C643.056,-422.685 635.702,-412.538 632,-401.8 626.785,-386.674 625.877,-380.582 632,-365.8 635.355,-357.7 640.905,-350.283 647.01,-343.88"/>
<polygon fill="black" stroke="black" points="649.544,-346.298 654.334,-336.847 644.696,-341.249 649.544,-346.298"/>
</g>
<!-- FAIL Twitter CanTweet -->
<g id="node17" class="node"><title>FAIL Twitter CanTweet</title>
<path fill="white" stroke="white" d="M922.072,-336.8C922.072,-336.8 789.928,-336.8 789.928,-336.8 783.928,-336.8 777.928,-330.8 777.928,-324.8 777.928,-324.8 777.928,-312.8 777.928,-312.8 777.928,-306.8 783.928,-300.8 789.928,-300.8 789.928,-300.8 922.072,-300.8 922.072,-300.8 928.072,-300.8 934.072,-306.8 934.072,-312.8 934.072,-312.8 934.072,-324.8 934.072,-324.8 934.072,-330.8 928.072,-336.8 922.072,-336.8"/>
<text text-anchor="middle" x="856" y="-313.2" font-family="Helvetica,sans-Serif" font-size="14.00">FAIL Twitter CanTweet</text>
</g>
<!-- PASS Twitter VerifyTwitterToken&#45;&gt;FAIL Twitter CanTweet -->
<g id="edge23" class="edge"><title>PASS Twitter VerifyTwitterToken&#45;&gt;FAIL Twitter CanTweet</title>
<path fill="none" stroke="black" d="M774.019,-430.744C806.02,-423.446 835.481,-413.802 846,-401.8 858.838,-387.152 860.869,-364.967 859.946,-347.365"/>
<polygon fill="black" stroke="black" points="863.408,-346.768 859.06,-337.106 856.434,-347.37 863.408,-346.768"/>
</g>
<!-- ERROR Twitter CanTweet -->
<g id="node18" class="node"><title>ERROR Twitter CanTweet</title>
<path fill="white" stroke="white" d="M807.276,-401.8C807.276,-401.8 652.724,-401.8 652.724,-401.8 646.724,-401.8 640.724,-395.8 640.724,-389.8 640.724,-389.8 640.724,-377.8 640.724,-377.8 640.724,-371.8 646.724,-365.8 652.724,-365.8 652.724,-365.8 807.276,-365.8 807.276,-365.8 813.276,-365.8 819.276,-371.8 819.276,-377.8 819.276,-377.8 819.276,-389.8 819.276,-389.8 819.276,-395.8 813.276,-401.8 807.276,-401.8"/>
<text text-anchor="middle" x="730" y="-378.2" font-family="Helvetica,sans-Serif" font-size="14.00">ERROR Twitter CanTweet</text>
</g>
<!-- PASS Twitter VerifyTwitterToken&#45;&gt;ERROR Twitter CanTweet -->
<g id="edge24" class="edge"><title>PASS Twitter VerifyTwitterToken&#45;&gt;ERROR Twitter CanTweet</title>
<path fill="none" stroke="black" d="M684.942,-430.585C691.366,-424.057 698.813,-416.49 705.779,-409.412"/>
<polygon fill="black" stroke="black" points="708.559,-411.577 713.079,-401.994 703.57,-406.667 708.559,-411.577"/>
</g>
<!-- FAIL Twitter VerifyTwitterToken -->
<g id="node14" class="node"><title>FAIL Twitter VerifyTwitterToken</title>
<path fill="white" stroke="white" d="M988.002,-466.8C988.002,-466.8 805.998,-466.8 805.998,-466.8 799.998,-466.8 793.998,-460.8 793.998,-454.8 793.998,-454.8 793.998,-442.8 793.998,-442.8 793.998,-436.8 799.998,-430.8 805.998,-430.8 805.998,-430.8 988.002,-430.8 988.002,-430.8 994.002,-430.8 1000,-436.8 1000,-442.8 1000,-442.8 1000,-454.8 1000,-454.8 1000,-460.8 994.002,-466.8 988.002,-466.8"/>
<text text-anchor="middle" x="897" y="-443.2" font-family="Helvetica,sans-Serif" font-size="14.00">FAIL Twitter VerifyTwitterToken</text>
</g>
<!-- ERROR Twitter VerifyTwitterToken -->
<g id="node15" class="node"><title>ERROR Twitter VerifyTwitterToken</title>
<path fill="white" stroke="white" d="M873.205,-531.8C873.205,-531.8 668.795,-531.8 668.795,-531.8 662.795,-531.8 656.795,-525.8 656.795,-519.8 656.795,-519.8 656.795,-507.8 656.795,-507.8 656.795,-501.8 662.795,-495.8 668.795,-495.8 668.795,-495.8 873.205,-495.8 873.205,-495.8 879.205,-495.8 885.205,-501.8 885.205,-507.8 885.205,-507.8 885.205,-519.8 885.205,-519.8 885.205,-525.8 879.205,-531.8 873.205,-531.8"/>
<text text-anchor="middle" x="771" y="-508.2" font-family="Helvetica,sans-Serif" font-size="14.00">ERROR Twitter VerifyTwitterToken</text>
</g>
<!-- ERROR Twitter VerifyTwitterToken&#45;&gt;PASS Twitter VerifyTwitterToken -->
<g id="edge25" class="edge"><title>ERROR Twitter VerifyTwitterToken&#45;&gt;PASS Twitter VerifyTwitterToken</title>
<path fill="none" stroke="black" d="M743.127,-495.751C731.219,-488.468 717.159,-479.868 704.442,-472.09"/>
<polygon fill="black" stroke="black" points="706.253,-469.094 695.896,-466.862 702.6,-475.066 706.253,-469.094"/>
</g>
<!-- ERROR Twitter VerifyTwitterToken&#45;&gt;FAIL Twitter VerifyTwitterToken -->
<g id="edge26" class="edge"><title>ERROR Twitter VerifyTwitterToken&#45;&gt;FAIL Twitter VerifyTwitterToken</title>
<path fill="none" stroke="black" d="M805.097,-495.751C820.085,-488.258 837.859,-479.371 853.763,-471.419"/>
<polygon fill="black" stroke="black" points="855.496,-474.465 862.875,-466.862 852.366,-468.204 855.496,-474.465"/>
</g>
<!-- ERROR Twitter VerifyTwitterToken&#45;&gt;ERROR Twitter VerifyTwitterToken -->
<g id="edge27" class="edge"><title>ERROR Twitter VerifyTwitterToken&#45;&gt;ERROR Twitter VerifyTwitterToken</title>
<path fill="none" stroke="black" d="M885.509,-523.42C896.231,-521.444 903,-518.237 903,-513.8 903,-510.957 900.222,-508.62 895.406,-506.787"/>
<polygon fill="black" stroke="black" points="896.071,-503.343 885.509,-504.18 894.288,-510.112 896.071,-503.343"/>
</g>
<!-- PASS Twitter ShouldTweet -->
<g id="node19" class="node"><title>PASS Twitter ShouldTweet</title>
<path fill="white" stroke="white" d="M739.029,-206.8C739.029,-206.8 580.971,-206.8 580.971,-206.8 574.971,-206.8 568.971,-200.8 568.971,-194.8 568.971,-194.8 568.971,-182.8 568.971,-182.8 568.971,-176.8 574.971,-170.8 580.971,-170.8 580.971,-170.8 739.029,-170.8 739.029,-170.8 745.029,-170.8 751.029,-176.8 751.029,-182.8 751.029,-182.8 751.029,-194.8 751.029,-194.8 751.029,-200.8 745.029,-206.8 739.029,-206.8"/>
<text text-anchor="middle" x="660" y="-183.2" font-family="Helvetica,sans-Serif" font-size="14.00">PASS Twitter ShouldTweet</text>
</g>
<!-- PASS Twitter CanTweet&#45;&gt;PASS Twitter ShouldTweet -->
<g id="edge28" class="edge"><title>PASS Twitter CanTweet&#45;&gt;PASS Twitter ShouldTweet</title>
<path fill="none" stroke="black" d="M642.285,-300.719C631.153,-293.465 620.181,-283.854 614,-271.8 606.7,-257.563 607.877,-250.582 614,-235.8 617.355,-227.7 622.905,-220.283 629.01,-213.88"/>
<polygon fill="black" stroke="black" points="631.544,-216.298 636.334,-206.847 626.696,-211.249 631.544,-216.298"/>
</g>
<!-- FAIL Twitter ShouldTweet -->
<g id="node20" class="node"><title>FAIL Twitter ShouldTweet</title>
<path fill="white" stroke="white" d="M931.004,-206.8C931.004,-206.8 780.996,-206.8 780.996,-206.8 774.996,-206.8 768.996,-200.8 768.996,-194.8 768.996,-194.8 768.996,-182.8 768.996,-182.8 768.996,-176.8 774.996,-170.8 780.996,-170.8 780.996,-170.8 931.004,-170.8 931.004,-170.8 937.004,-170.8 943.004,-176.8 943.004,-182.8 943.004,-182.8 943.004,-194.8 943.004,-194.8 943.004,-200.8 937.004,-206.8 931.004,-206.8"/>
<text text-anchor="middle" x="856" y="-183.2" font-family="Helvetica,sans-Serif" font-size="14.00">FAIL Twitter ShouldTweet</text>
</g>
<!-- PASS Twitter CanTweet&#45;&gt;FAIL Twitter ShouldTweet -->
<g id="edge29" class="edge"><title>PASS Twitter CanTweet&#45;&gt;FAIL Twitter ShouldTweet</title>
<path fill="none" stroke="black" d="M755.362,-300.744C796.353,-290.984 839.576,-279.238 846,-271.8 858.732,-257.06 860.77,-234.881 859.876,-217.304"/>
<polygon fill="black" stroke="black" points="863.341,-216.733 859.011,-207.063 856.365,-217.322 863.341,-216.733"/>
</g>
<!-- ERROR Twitter ShouldTweet -->
<g id="node21" class="node"><title>ERROR Twitter ShouldTweet</title>
<path fill="white" stroke="white" d="M807.208,-271.8C807.208,-271.8 634.792,-271.8 634.792,-271.8 628.792,-271.8 622.792,-265.8 622.792,-259.8 622.792,-259.8 622.792,-247.8 622.792,-247.8 622.792,-241.8 628.792,-235.8 634.792,-235.8 634.792,-235.8 807.208,-235.8 807.208,-235.8 813.208,-235.8 819.208,-241.8 819.208,-247.8 819.208,-247.8 819.208,-259.8 819.208,-259.8 819.208,-265.8 813.208,-271.8 807.208,-271.8"/>
<text text-anchor="middle" x="721" y="-248.2" font-family="Helvetica,sans-Serif" font-size="14.00">ERROR Twitter ShouldTweet</text>
</g>
<!-- PASS Twitter CanTweet&#45;&gt;ERROR Twitter ShouldTweet -->
<g id="edge30" class="edge"><title>PASS Twitter CanTweet&#45;&gt;ERROR Twitter ShouldTweet</title>
<path fill="none" stroke="black" d="M689.75,-300.585C694.016,-294.335 698.932,-287.132 703.583,-280.318"/>
<polygon fill="black" stroke="black" points="706.518,-282.227 709.264,-271.994 700.736,-278.281 706.518,-282.227"/>
</g>
<!-- ERROR Twitter CanTweet&#45;&gt;PASS Twitter CanTweet -->
<g id="edge31" class="edge"><title>ERROR Twitter CanTweet&#45;&gt;PASS Twitter CanTweet</title>
<path fill="none" stroke="black" d="M715.791,-365.585C710.517,-359.196 704.422,-351.812 698.688,-344.864"/>
<polygon fill="black" stroke="black" points="701.257,-342.478 692.192,-336.994 695.858,-346.934 701.257,-342.478"/>
</g>
<!-- ERROR Twitter CanTweet&#45;&gt;FAIL Twitter CanTweet -->
<g id="edge32" class="edge"><title>ERROR Twitter CanTweet&#45;&gt;FAIL Twitter CanTweet</title>
<path fill="none" stroke="black" d="M764.097,-365.751C779.085,-358.258 796.859,-349.371 812.763,-341.419"/>
<polygon fill="black" stroke="black" points="814.496,-344.465 821.875,-336.862 811.366,-338.204 814.496,-344.465"/>
</g>
<!-- ERROR Twitter CanTweet&#45;&gt;ERROR Twitter CanTweet -->
<g id="edge33" class="edge"><title>ERROR Twitter CanTweet&#45;&gt;ERROR Twitter CanTweet</title>
<path fill="none" stroke="black" d="M819.367,-394.113C830.034,-392.238 837,-388.8 837,-383.8 837,-380.597 834.141,-378.035 829.282,-376.114"/>
<polygon fill="black" stroke="black" points="829.93,-372.665 819.367,-373.488 828.137,-379.432 829.93,-372.665"/>
</g>
<!-- PASS Twitter Tweet -->
<g id="node22" class="node"><title>PASS Twitter Tweet</title>
<path fill="#00ee00" stroke="#00ee00" d="M687.149,-76.8C687.149,-76.8 572.851,-76.8 572.851,-76.8 566.851,-76.8 560.851,-70.8 560.851,-64.8 560.851,-64.8 560.851,-52.8 560.851,-52.8 560.851,-46.8 566.851,-40.8 572.851,-40.8 572.851,-40.8 687.149,-40.8 687.149,-40.8 693.149,-40.8 699.149,-46.8 699.149,-52.8 699.149,-52.8 699.149,-64.8 699.149,-64.8 699.149,-70.8 693.149,-76.8 687.149,-76.8"/>
<text text-anchor="middle" x="630" y="-53.2" font-family="Helvetica,sans-Serif" font-size="14.00">PASS Twitter Tweet</text>
</g>
<!-- PASS Twitter ShouldTweet&#45;&gt;PASS Twitter Tweet -->
<g id="edge34" class="edge"><title>PASS Twitter ShouldTweet&#45;&gt;PASS Twitter Tweet</title>
<path fill="none" stroke="black" d="M615.368,-170.799C602.999,-163.783 591.043,-154.295 584,-141.8 576.144,-127.862 577.877,-120.582 584,-105.8 587.355,-97.7003 592.905,-90.2832 599.01,-83.8795"/>
<polygon fill="black" stroke="black" points="601.544,-86.2981 606.334,-76.8474 596.696,-81.2488 601.544,-86.2981"/>
</g>
<!-- FAIL Twitter Tweet -->
<g id="node23" class="node"><title>FAIL Twitter Tweet</title>
<path fill="white" stroke="white" d="M835.125,-76.8C835.125,-76.8 728.875,-76.8 728.875,-76.8 722.875,-76.8 716.875,-70.8 716.875,-64.8 716.875,-64.8 716.875,-52.8 716.875,-52.8 716.875,-46.8 722.875,-40.8 728.875,-40.8 728.875,-40.8 835.125,-40.8 835.125,-40.8 841.125,-40.8 847.125,-46.8 847.125,-52.8 847.125,-52.8 847.125,-64.8 847.125,-64.8 847.125,-70.8 841.125,-76.8 835.125,-76.8"/>
<text text-anchor="middle" x="782" y="-53.2" font-family="Helvetica,sans-Serif" font-size="14.00">FAIL Twitter Tweet</text>
</g>
<!-- PASS Twitter ShouldTweet&#45;&gt;FAIL Twitter Tweet -->
<g id="edge35" class="edge"><title>PASS Twitter ShouldTweet&#45;&gt;FAIL Twitter Tweet</title>
<path fill="none" stroke="black" d="M733.018,-170.793C747.965,-164.085 762.125,-154.757 772,-141.8 783.735,-126.403 785.875,-104.445 785.275,-87.1256"/>
<polygon fill="black" stroke="black" points="788.761,-86.7893 784.61,-77.0415 781.776,-87.2504 788.761,-86.7893"/>
</g>
<!-- ERROR Twitter Tweet -->
<g id="node24" class="node"><title>ERROR Twitter Tweet</title>
<path fill="white" stroke="white" d="M733.329,-141.8C733.329,-141.8 604.671,-141.8 604.671,-141.8 598.671,-141.8 592.671,-135.8 592.671,-129.8 592.671,-129.8 592.671,-117.8 592.671,-117.8 592.671,-111.8 598.671,-105.8 604.671,-105.8 604.671,-105.8 733.329,-105.8 733.329,-105.8 739.329,-105.8 745.329,-111.8 745.329,-117.8 745.329,-117.8 745.329,-129.8 745.329,-129.8 745.329,-135.8 739.329,-141.8 733.329,-141.8"/>
<text text-anchor="middle" x="669" y="-118.2" font-family="Helvetica,sans-Serif" font-size="14.00">ERROR Twitter Tweet</text>
</g>
<!-- PASS Twitter ShouldTweet&#45;&gt;ERROR Twitter Tweet -->
<g id="edge36" class="edge"><title>PASS Twitter ShouldTweet&#45;&gt;ERROR Twitter Tweet</title>
<path fill="none" stroke="black" d="M662.459,-170.585C663.273,-164.89 664.199,-158.405 665.094,-152.143"/>
<polygon fill="black" stroke="black" points="668.594,-152.389 666.544,-141.994 661.665,-151.399 668.594,-152.389"/>
</g>
<!-- ERROR Twitter ShouldTweet&#45;&gt;PASS Twitter ShouldTweet -->
<g id="edge37" class="edge"><title>ERROR Twitter ShouldTweet&#45;&gt;PASS Twitter ShouldTweet</title>
<path fill="none" stroke="black" d="M704.331,-235.585C698.011,-229.057 690.684,-221.49 683.83,-214.412"/>
<polygon fill="black" stroke="black" points="686.119,-211.744 676.648,-206.994 681.09,-216.613 686.119,-211.744"/>
</g>
<!-- ERROR Twitter ShouldTweet&#45;&gt;FAIL Twitter ShouldTweet -->
<g id="edge38" class="edge"><title>ERROR Twitter ShouldTweet&#45;&gt;FAIL Twitter ShouldTweet</title>
<path fill="none" stroke="black" d="M757.533,-235.751C773.741,-228.188 792.99,-219.205 810.151,-211.196"/>
<polygon fill="black" stroke="black" points="811.856,-214.263 819.438,-206.862 808.896,-207.92 811.856,-214.263"/>
</g>
<!-- ERROR Twitter ShouldTweet&#45;&gt;ERROR Twitter ShouldTweet -->
<g id="edge39" class="edge"><title>ERROR Twitter ShouldTweet&#45;&gt;ERROR Twitter ShouldTweet</title>
<path fill="none" stroke="black" d="M819.168,-263.895C830.004,-261.977 837,-258.613 837,-253.8 837,-250.642 833.987,-248.107 828.853,-246.196"/>
<polygon fill="black" stroke="black" points="829.724,-242.806 819.168,-243.705 827.981,-249.585 829.724,-242.806"/>
</g>
<!-- ERROR Twitter Tweet&#45;&gt;PASS Twitter Tweet -->
<g id="edge40" class="edge"><title>ERROR Twitter Tweet&#45;&gt;PASS Twitter Tweet</title>
<path fill="none" stroke="black" d="M658.343,-105.585C654.56,-99.4735 650.213,-92.4519 646.078,-85.7726"/>
<polygon fill="black" stroke="black" points="648.884,-83.6546 640.644,-76.9942 642.932,-87.3391 648.884,-83.6546"/>
</g>
<!-- ERROR Twitter Tweet&#45;&gt;FAIL Twitter Tweet -->
<g id="edge41" class="edge"><title>ERROR Twitter Tweet&#45;&gt;FAIL Twitter Tweet</title>
<path fill="none" stroke="black" d="M699.579,-105.751C712.769,-98.3976 728.365,-89.7025 742.422,-81.8656"/>
<polygon fill="black" stroke="black" points="744.366,-84.7889 751.396,-76.8623 740.957,-78.6749 744.366,-84.7889"/>
</g>
<!-- ERROR Twitter Tweet&#45;&gt;ERROR Twitter Tweet -->
<g id="edge42" class="edge"><title>ERROR Twitter Tweet&#45;&gt;ERROR Twitter Tweet</title>
<path fill="none" stroke="black" d="M745.347,-134.508C755.928,-132.744 763,-129.175 763,-123.8 763,-120.357 760.098,-117.654 755.23,-115.693"/>
<polygon fill="black" stroke="black" points="755.909,-112.253 745.347,-113.092 754.127,-119.022 755.909,-112.253"/>
</g>
<!-- PASS Billing VerifyCreditCard -->
<g id="node25" class="node"><title>PASS Billing VerifyCreditCard</title>
<path fill="white" stroke="white" d="M1285.12,-466.8C1285.12,-466.8 1108.88,-466.8 1108.88,-466.8 1102.88,-466.8 1096.88,-460.8 1096.88,-454.8 1096.88,-454.8 1096.88,-442.8 1096.88,-442.8 1096.88,-436.8 1102.88,-430.8 1108.88,-430.8 1108.88,-430.8 1285.12,-430.8 1285.12,-430.8 1291.12,-430.8 1297.12,-436.8 1297.12,-442.8 1297.12,-442.8 1297.12,-454.8 1297.12,-454.8 1297.12,-460.8 1291.12,-466.8 1285.12,-466.8"/>
<text text-anchor="middle" x="1197" y="-443.2" font-family="Helvetica,sans-Serif" font-size="14.00">PASS Billing VerifyCreditCard</text>
</g>
<!-- PASS Billing BillCreditCard -->
<g id="node28" class="node"><title>PASS Billing BillCreditCard</title>
<path fill="white" stroke="white" d="M1257.36,-336.8C1257.36,-336.8 1098.64,-336.8 1098.64,-336.8 1092.64,-336.8 1086.64,-330.8 1086.64,-324.8 1086.64,-324.8 1086.64,-312.8 1086.64,-312.8 1086.64,-306.8 1092.64,-300.8 1098.64,-300.8 1098.64,-300.8 1257.36,-300.8 1257.36,-300.8 1263.36,-300.8 1269.36,-306.8 1269.36,-312.8 1269.36,-312.8 1269.36,-324.8 1269.36,-324.8 1269.36,-330.8 1263.36,-336.8 1257.36,-336.8"/>
<text text-anchor="middle" x="1178" y="-313.2" font-family="Helvetica,sans-Serif" font-size="14.00">PASS Billing BillCreditCard</text>
</g>
<!-- PASS Billing VerifyCreditCard&#45;&gt;PASS Billing BillCreditCard -->
<g id="edge43" class="edge"><title>PASS Billing VerifyCreditCard&#45;&gt;PASS Billing BillCreditCard</title>
<path fill="none" stroke="black" d="M1160.4,-430.613C1149.21,-423.394 1138.23,-413.833 1132,-401.8 1124.65,-387.589 1125.88,-380.582 1132,-365.8 1135.35,-357.7 1140.9,-350.283 1147.01,-343.88"/>
<polygon fill="black" stroke="black" points="1149.54,-346.298 1154.33,-336.847 1144.7,-341.249 1149.54,-346.298"/>
</g>
<!-- FAIL Billing BillCreditCard -->
<g id="node29" class="node"><title>FAIL Billing BillCreditCard</title>
<path fill="white" stroke="white" d="M1451.33,-336.8C1451.33,-336.8 1300.67,-336.8 1300.67,-336.8 1294.67,-336.8 1288.67,-330.8 1288.67,-324.8 1288.67,-324.8 1288.67,-312.8 1288.67,-312.8 1288.67,-306.8 1294.67,-300.8 1300.67,-300.8 1300.67,-300.8 1451.33,-300.8 1451.33,-300.8 1457.33,-300.8 1463.33,-306.8 1463.33,-312.8 1463.33,-312.8 1463.33,-324.8 1463.33,-324.8 1463.33,-330.8 1457.33,-336.8 1451.33,-336.8"/>
<text text-anchor="middle" x="1376" y="-313.2" font-family="Helvetica,sans-Serif" font-size="14.00">FAIL Billing BillCreditCard</text>
</g>
<!-- PASS Billing VerifyCreditCard&#45;&gt;FAIL Billing BillCreditCard -->
<g id="edge44" class="edge"><title>PASS Billing VerifyCreditCard&#45;&gt;FAIL Billing BillCreditCard</title>
<path fill="none" stroke="black" d="M1295.42,-430.73C1326.68,-423.308 1355.8,-413.586 1366,-401.8 1378.74,-387.07 1380.78,-364.89 1379.88,-347.311"/>
<polygon fill="black" stroke="black" points="1383.35,-346.736 1379.02,-337.067 1376.37,-347.327 1383.35,-346.736"/>
</g>
<!-- ERROR Billing BillCreditCard -->
<g id="node30" class="node"><title>ERROR Billing BillCreditCard</title>
<path fill="white" stroke="white" d="M1327.04,-401.8C1327.04,-401.8 1152.96,-401.8 1152.96,-401.8 1146.96,-401.8 1140.96,-395.8 1140.96,-389.8 1140.96,-389.8 1140.96,-377.8 1140.96,-377.8 1140.96,-371.8 1146.96,-365.8 1152.96,-365.8 1152.96,-365.8 1327.04,-365.8 1327.04,-365.8 1333.04,-365.8 1339.04,-371.8 1339.04,-377.8 1339.04,-377.8 1339.04,-389.8 1339.04,-389.8 1339.04,-395.8 1333.04,-401.8 1327.04,-401.8"/>
<text text-anchor="middle" x="1240" y="-378.2" font-family="Helvetica,sans-Serif" font-size="14.00">ERROR Billing BillCreditCard</text>
</g>
<!-- PASS Billing VerifyCreditCard&#45;&gt;ERROR Billing BillCreditCard -->
<g id="edge45" class="edge"><title>PASS Billing VerifyCreditCard&#45;&gt;ERROR Billing BillCreditCard</title>
<path fill="none" stroke="black" d="M1208.75,-430.585C1213.02,-424.335 1217.93,-417.132 1222.58,-410.318"/>
<polygon fill="black" stroke="black" points="1225.52,-412.227 1228.26,-401.994 1219.74,-408.281 1225.52,-412.227"/>
</g>
<!-- FAIL Billing VerifyCreditCard -->
<g id="node26" class="node"><title>FAIL Billing VerifyCreditCard</title>
<path fill="white" stroke="white" d="M1495.1,-466.8C1495.1,-466.8 1326.9,-466.8 1326.9,-466.8 1320.9,-466.8 1314.9,-460.8 1314.9,-454.8 1314.9,-454.8 1314.9,-442.8 1314.9,-442.8 1314.9,-436.8 1320.9,-430.8 1326.9,-430.8 1326.9,-430.8 1495.1,-430.8 1495.1,-430.8 1501.1,-430.8 1507.1,-436.8 1507.1,-442.8 1507.1,-442.8 1507.1,-454.8 1507.1,-454.8 1507.1,-460.8 1501.1,-466.8 1495.1,-466.8"/>
<text text-anchor="middle" x="1411" y="-443.2" font-family="Helvetica,sans-Serif" font-size="14.00">FAIL Billing VerifyCreditCard</text>
</g>
<!-- ERROR Billing VerifyCreditCard -->
<g id="node27" class="node"><title>ERROR Billing VerifyCreditCard</title>
<path fill="white" stroke="white" d="M1384.3,-531.8C1384.3,-531.8 1193.7,-531.8 1193.7,-531.8 1187.7,-531.8 1181.7,-525.8 1181.7,-519.8 1181.7,-519.8 1181.7,-507.8 1181.7,-507.8 1181.7,-501.8 1187.7,-495.8 1193.7,-495.8 1193.7,-495.8 1384.3,-495.8 1384.3,-495.8 1390.3,-495.8 1396.3,-501.8 1396.3,-507.8 1396.3,-507.8 1396.3,-519.8 1396.3,-519.8 1396.3,-525.8 1390.3,-531.8 1384.3,-531.8"/>
<text text-anchor="middle" x="1289" y="-508.2" font-family="Helvetica,sans-Serif" font-size="14.00">ERROR Billing VerifyCreditCard</text>
</g>
<!-- ERROR Billing VerifyCreditCard&#45;&gt;PASS Billing VerifyCreditCard -->
<g id="edge46" class="edge"><title>ERROR Billing VerifyCreditCard&#45;&gt;PASS Billing VerifyCreditCard</title>
<path fill="none" stroke="black" d="M1263.86,-495.585C1253.62,-488.571 1241.62,-480.357 1230.64,-472.839"/>
<polygon fill="black" stroke="black" points="1232.34,-469.756 1222.11,-466.994 1228.38,-475.532 1232.34,-469.756"/>
</g>
<!-- ERROR Billing VerifyCreditCard&#45;&gt;FAIL Billing VerifyCreditCard -->
<g id="edge47" class="edge"><title>ERROR Billing VerifyCreditCard&#45;&gt;FAIL Billing VerifyCreditCard</title>
<path fill="none" stroke="black" d="M1322.01,-495.751C1336.39,-488.328 1353.41,-479.537 1368.7,-471.642"/>
<polygon fill="black" stroke="black" points="1370.68,-474.561 1377.96,-466.862 1367.47,-468.341 1370.68,-474.561"/>
</g>
<!-- ERROR Billing VerifyCreditCard&#45;&gt;ERROR Billing VerifyCreditCard -->
<g id="edge48" class="edge"><title>ERROR Billing VerifyCreditCard&#45;&gt;ERROR Billing VerifyCreditCard</title>
<path fill="none" stroke="black" d="M1396.13,-523.664C1407.04,-521.713 1414,-518.425 1414,-513.8 1414,-510.765 1411,-508.305 1405.86,-506.422"/>
<polygon fill="black" stroke="black" points="1406.69,-503.021 1396.13,-503.936 1404.95,-509.803 1406.69,-503.021"/>
</g>
<!-- PASS Billing SendBillingNotification -->
<g id="node31" class="node"><title>PASS Billing SendBillingNotification</title>
<path fill="gold" stroke="gold" d="M1248.07,-206.8C1248.07,-206.8 1035.93,-206.8 1035.93,-206.8 1029.93,-206.8 1023.93,-200.8 1023.93,-194.8 1023.93,-194.8 1023.93,-182.8 1023.93,-182.8 1023.93,-176.8 1029.93,-170.8 1035.93,-170.8 1035.93,-170.8 1248.07,-170.8 1248.07,-170.8 1254.07,-170.8 1260.07,-176.8 1260.07,-182.8 1260.07,-182.8 1260.07,-194.8 1260.07,-194.8 1260.07,-200.8 1254.07,-206.8 1248.07,-206.8"/>
<text text-anchor="middle" x="1142" y="-183.2" font-family="Helvetica,sans-Serif" font-size="14.00">PASS Billing SendBillingNotification</text>
</g>
<!-- PASS Billing BillCreditCard&#45;&gt;PASS Billing SendBillingNotification -->
<g id="edge49" class="edge"><title>PASS Billing BillCreditCard&#45;&gt;PASS Billing SendBillingNotification</title>
<path fill="none" stroke="black" d="M1129.23,-300.726C1116.51,-293.799 1104.32,-284.379 1097,-271.8 1088.95,-257.972 1090.96,-250.615 1097,-235.8 1100.27,-227.77 1105.7,-220.38 1111.67,-213.981"/>
<polygon fill="black" stroke="black" points="1114.16,-216.448 1118.84,-206.944 1109.25,-211.454 1114.16,-216.448"/>
</g>
<!-- FAIL Billing SendBillingNotification -->
<g id="node32" class="node"><title>FAIL Billing SendBillingNotification</title>
<path fill="white" stroke="white" d="M1495.04,-206.8C1495.04,-206.8 1290.96,-206.8 1290.96,-206.8 1284.96,-206.8 1278.96,-200.8 1278.96,-194.8 1278.96,-194.8 1278.96,-182.8 1278.96,-182.8 1278.96,-176.8 1284.96,-170.8 1290.96,-170.8 1290.96,-170.8 1495.04,-170.8 1495.04,-170.8 1501.04,-170.8 1507.04,-176.8 1507.04,-182.8 1507.04,-182.8 1507.04,-194.8 1507.04,-194.8 1507.04,-200.8 1501.04,-206.8 1495.04,-206.8"/>
<text text-anchor="middle" x="1393" y="-183.2" font-family="Helvetica,sans-Serif" font-size="14.00">FAIL Billing SendBillingNotification</text>
</g>
<!-- PASS Billing BillCreditCard&#45;&gt;FAIL Billing SendBillingNotification -->
<g id="edge50" class="edge"><title>PASS Billing BillCreditCard&#45;&gt;FAIL Billing SendBillingNotification</title>
<path fill="none" stroke="black" d="M1269.44,-302.266C1320.26,-292.765 1374.89,-280.757 1383,-271.8 1396.21,-257.204 1398.13,-234.68 1397.07,-216.93"/>
<polygon fill="black" stroke="black" points="1400.54,-216.499 1396.13,-206.868 1393.57,-217.15 1400.54,-216.499"/>
</g>
<!-- ERROR Billing SendBillingNotification -->
<g id="node33" class="node"><title>ERROR Billing SendBillingNotification</title>
<path fill="white" stroke="white" d="M1344.24,-271.8C1344.24,-271.8 1117.76,-271.8 1117.76,-271.8 1111.76,-271.8 1105.76,-265.8 1105.76,-259.8 1105.76,-259.8 1105.76,-247.8 1105.76,-247.8 1105.76,-241.8 1111.76,-235.8 1117.76,-235.8 1117.76,-235.8 1344.24,-235.8 1344.24,-235.8 1350.24,-235.8 1356.24,-241.8 1356.24,-247.8 1356.24,-247.8 1356.24,-259.8 1356.24,-259.8 1356.24,-265.8 1350.24,-271.8 1344.24,-271.8"/>
<text text-anchor="middle" x="1231" y="-248.2" font-family="Helvetica,sans-Serif" font-size="14.00">ERROR Billing SendBillingNotification</text>
</g>
<!-- PASS Billing BillCreditCard&#45;&gt;ERROR Billing SendBillingNotification -->
<g id="edge51" class="edge"><title>PASS Billing BillCreditCard&#45;&gt;ERROR Billing SendBillingNotification</title>
<path fill="none" stroke="black" d="M1192.48,-300.585C1197.86,-294.196 1204.07,-286.812 1209.91,-279.864"/>
<polygon fill="black" stroke="black" points="1212.78,-281.9 1216.54,-271.994 1207.42,-277.393 1212.78,-281.9"/>
</g>
<!-- ERROR Billing BillCreditCard&#45;&gt;PASS Billing BillCreditCard -->
<g id="edge52" class="edge"><title>ERROR Billing BillCreditCard&#45;&gt;PASS Billing BillCreditCard</title>
<path fill="none" stroke="black" d="M1223.06,-365.585C1216.63,-359.057 1209.19,-351.49 1202.22,-344.412"/>
<polygon fill="black" stroke="black" points="1204.43,-341.667 1194.92,-336.994 1199.44,-346.577 1204.43,-341.667"/>
</g>
<!-- ERROR Billing BillCreditCard&#45;&gt;FAIL Billing BillCreditCard -->
<g id="edge53" class="edge"><title>ERROR Billing BillCreditCard&#45;&gt;FAIL Billing BillCreditCard</title>
<path fill="none" stroke="black" d="M1276.8,-365.751C1293.13,-358.188 1312.52,-349.205 1329.81,-341.196"/>
<polygon fill="black" stroke="black" points="1331.56,-344.241 1339.17,-336.862 1328.62,-337.89 1331.56,-344.241"/>
</g>
<!-- ERROR Billing BillCreditCard&#45;&gt;ERROR Billing BillCreditCard -->
<g id="edge54" class="edge"><title>ERROR Billing BillCreditCard&#45;&gt;ERROR Billing BillCreditCard</title>
<path fill="none" stroke="black" d="M1339.01,-393.895C1349.94,-391.977 1357,-388.613 1357,-383.8 1357,-380.642 1353.96,-378.107 1348.78,-376.196"/>
<polygon fill="black" stroke="black" points="1349.57,-372.784 1339.01,-373.705 1347.84,-379.567 1349.57,-372.784"/>
</g>
<!-- ERROR Billing SendBillingNotification&#45;&gt;PASS Billing SendBillingNotification -->
<g id="edge55" class="edge"><title>ERROR Billing SendBillingNotification&#45;&gt;PASS Billing SendBillingNotification</title>
<path fill="none" stroke="black" d="M1206.68,-235.585C1196.77,-228.571 1185.17,-220.357 1174.55,-212.839"/>
<polygon fill="black" stroke="black" points="1176.47,-209.915 1166.29,-206.994 1172.43,-215.629 1176.47,-209.915"/>
</g>
<!-- ERROR Billing SendBillingNotification&#45;&gt;FAIL Billing SendBillingNotification -->
<g id="edge56" class="edge"><title>ERROR Billing SendBillingNotification&#45;&gt;FAIL Billing SendBillingNotification</title>
<path fill="none" stroke="black" d="M1274.84,-235.751C1294.83,-227.977 1318.67,-218.704 1339.69,-210.531"/>
<polygon fill="black" stroke="black" points="1341.07,-213.749 1349.13,-206.862 1338.54,-207.225 1341.07,-213.749"/>
</g>
<!-- ERROR Billing SendBillingNotification&#45;&gt;ERROR Billing SendBillingNotification -->
<g id="edge57" class="edge"><title>ERROR Billing SendBillingNotification&#45;&gt;ERROR Billing SendBillingNotification</title>
<path fill="none" stroke="black" d="M1356.5,-263.163C1367.27,-261.171 1374,-258.05 1374,-253.8 1374,-251.077 1371.24,-248.818 1366.42,-247.022"/>
<polygon fill="black" stroke="black" points="1367.06,-243.571 1356.5,-244.437 1365.3,-250.345 1367.06,-243.571"/>
</g>
</g>
</svg>
