<?xml version="1.0" encoding="UTF-8" standalone="no"?>
<!DOCTYPE svg PUBLIC "-//W3C//DTD SVG 1.1//EN"
 "http://www.w3.org/Graphics/SVG/1.1/DTD/svg11.dtd">
<!-- Generated by graphviz version 2.30.1 (20130824.0405)
 -->
<!-- Title: GraphRouteBasic Pages: 1 -->
<svg width="317pt" height="455pt"
 viewBox="0.00 0.00 317.00 454.80" xmlns="http://www.w3.org/2000/svg" xmlns:xlink="http://www.w3.org/1999/xlink">
<g id="graph0" class="graph" transform="scale(1 1) rotate(0) translate(4 450.8)">
<title>GraphRouteBasic</title>
<polygon fill="white" stroke="white" points="-4,5 -4,-450.8 314,-450.8 314,5 -4,5"/>
<text text-anchor="middle" x="154.5" y="-6.8" font-family="Helvetica,sans-Serif" font-size="14.00">Blast Route &#45; basic</text>
<g id="clust1" class="cluster"><title>cluster0</title>
<polygon fill="#b3b3b3" stroke="#7f7f7f" points="75,-362.8 75,-438.8 301,-438.8 301,-362.8 75,-362.8"/>
<text text-anchor="middle" x="188" y="-420.8" font-family="Helvetica,sans-Serif" font-size="14.00">Facebook</text>
</g>
<g id="clust2" class="cluster"><title>cluster1</title>
<polygon fill="#b3b3b3" stroke="#7f7f7f" points="8,-254.8 8,-330.8 234,-330.8 234,-254.8 8,-254.8"/>
<text text-anchor="middle" x="121" y="-312.8" font-family="Helvetica,sans-Serif" font-size="14.00">Twitter</text>
</g>
<g id="clust3" class="cluster"><title>cluster2</title>
<polygon fill="#b3b3b3" stroke="#7f7f7f" points="39,-32.8 39,-108.8 265,-108.8 265,-32.8 39,-32.8"/>
<text text-anchor="middle" x="152" y="-90.8" font-family="Helvetica,sans-Serif" font-size="14.00">Billing</text>
</g>
<!-- FacebookPASS -->
<g id="node1" class="node"><title>FacebookPASS</title>
<path fill="#00ee00" stroke="#00ee00" d="M281,-406.8C281,-406.8 251,-406.8 251,-406.8 245,-406.8 239,-400.8 239,-394.8 239,-394.8 239,-382.8 239,-382.8 239,-376.8 245,-370.8 251,-370.8 251,-370.8 281,-370.8 281,-370.8 287,-370.8 293,-376.8 293,-382.8 293,-382.8 293,-394.8 293,-394.8 293,-400.8 287,-406.8 281,-406.8"/>
<text text-anchor="middle" x="266" y="-383.2" font-family="Helvetica,sans-Serif" font-size="14.00">PASS</text>
</g>
<!-- TwitterPASS -->
<g id="node4" class="node"><title>TwitterPASS</title>
<path fill="#00ee00" stroke="#00ee00" d="M214,-298.8C214,-298.8 184,-298.8 184,-298.8 178,-298.8 172,-292.8 172,-286.8 172,-286.8 172,-274.8 172,-274.8 172,-268.8 178,-262.8 184,-262.8 184,-262.8 214,-262.8 214,-262.8 220,-262.8 226,-268.8 226,-274.8 226,-274.8 226,-286.8 226,-286.8 226,-292.8 220,-298.8 214,-298.8"/>
<text text-anchor="middle" x="199" y="-275.2" font-family="Helvetica,sans-Serif" font-size="14.00">PASS</text>
</g>
<!-- FacebookPASS&#45;&gt;TwitterPASS -->
<g id="edge1" class="edge"><title>FacebookPASS&#45;&gt;TwitterPASS</title>
<path fill="none" stroke="black" d="M255.235,-370.769C249.733,-362.064 242.681,-350.908 235.445,-339.459"/>
<polygon fill="black" stroke="black" points="238.2,-337.266 229.898,-330.684 232.283,-341.007 238.2,-337.266"/>
</g>
<!-- FacebookTwitterPASS -->
<g id="node10" class="node"><title>FacebookTwitterPASS</title>
<path fill="none" stroke="#7f7f7f" d="M276.27,-190.402C276.27,-190.402 183.73,-190.402 183.73,-190.402 177.73,-190.402 171.73,-184.402 171.73,-178.402 171.73,-178.402 171.73,-161.198 171.73,-161.198 171.73,-155.198 177.73,-149.198 183.73,-149.198 183.73,-149.198 276.27,-149.198 276.27,-149.198 282.27,-149.198 288.27,-155.198 288.27,-161.198 288.27,-161.198 288.27,-178.402 288.27,-178.402 288.27,-184.402 282.27,-190.402 276.27,-190.402"/>
<text text-anchor="middle" x="230" y="-172.6" font-family="Helvetica,sans-Serif" font-size="14.00" fill="#666666">Facebook PASS</text>
<text text-anchor="middle" x="230" y="-155.8" font-family="Helvetica,sans-Serif" font-size="14.00" fill="#666666">Twitter PASS</text>
</g>
<!-- FacebookPASS&#45;&gt;FacebookTwitterPASS -->
<g id="edge4" class="edge"><title>FacebookPASS&#45;&gt;FacebookTwitterPASS</title>
<path fill="none" stroke="black" d="M263.175,-370.772C257.07,-333.973 242.581,-246.637 234.93,-200.515"/>
<polygon fill="black" stroke="black" points="238.363,-199.823 233.273,-190.53 231.457,-200.968 238.363,-199.823"/>
</g>
<!-- FacebookFAIL -->
<g id="node2" class="node"><title>FacebookFAIL</title>
<path fill="white" stroke="white" d="M209,-406.8C209,-406.8 179,-406.8 179,-406.8 173,-406.8 167,-400.8 167,-394.8 167,-394.8 167,-382.8 167,-382.8 167,-376.8 173,-370.8 179,-370.8 179,-370.8 209,-370.8 209,-370.8 215,-370.8 221,-376.8 221,-382.8 221,-382.8 221,-394.8 221,-394.8 221,-400.8 215,-406.8 209,-406.8"/>
<text text-anchor="middle" x="194" y="-383.2" font-family="Helvetica,sans-Serif" font-size="14.00">FAIL</text>
</g>
<!-- FacebookFAIL&#45;&gt;TwitterPASS -->
<g id="edge2" class="edge"><title>FacebookFAIL&#45;&gt;TwitterPASS</title>
<path fill="none" stroke="black" d="M194.803,-370.769C195.201,-362.334 195.708,-351.597 196.23,-340.523"/>
<polygon fill="black" stroke="black" points="199.736,-340.468 196.712,-330.314 192.744,-340.138 199.736,-340.468"/>
</g>
<!-- FacebookERROR -->
<g id="node3" class="node"><title>FacebookERROR</title>
<path fill="white" stroke="white" d="M136.921,-406.8C136.921,-406.8 95.0787,-406.8 95.0787,-406.8 89.0787,-406.8 83.0787,-400.8 83.0787,-394.8 83.0787,-394.8 83.0787,-382.8 83.0787,-382.8 83.0787,-376.8 89.0787,-370.8 95.0787,-370.8 95.0787,-370.8 136.921,-370.8 136.921,-370.8 142.921,-370.8 148.921,-376.8 148.921,-382.8 148.921,-382.8 148.921,-394.8 148.921,-394.8 148.921,-400.8 142.921,-406.8 136.921,-406.8"/>
<text text-anchor="middle" x="116" y="-383.2" font-family="Helvetica,sans-Serif" font-size="14.00">ERROR</text>
</g>
<!-- FacebookERROR&#45;&gt;TwitterPASS -->
<g id="edge3" class="edge"><title>FacebookERROR&#45;&gt;TwitterPASS</title>
<path fill="none" stroke="black" d="M130.445,-370.792C138.032,-361.759 147.6,-350.214 156.592,-338.93"/>
<polygon fill="black" stroke="black" points="159.559,-340.82 163,-330.8 154.061,-336.487 159.559,-340.82"/>
</g>
<!-- TwitterPASS&#45;&gt;FacebookTwitterPASS -->
<g id="edge5" class="edge"><title>TwitterPASS&#45;&gt;FacebookTwitterPASS</title>
<path fill="none" stroke="black" d="M203.844,-262.769C208.571,-246.147 215.862,-220.512 221.546,-200.525"/>
<polygon fill="black" stroke="black" points="224.981,-201.242 224.35,-190.666 218.248,-199.327 224.981,-201.242"/>
</g>
<!-- TwitterFAIL -->
<g id="node5" class="node"><title>TwitterFAIL</title>
<path fill="white" stroke="white" d="M142,-298.8C142,-298.8 112,-298.8 112,-298.8 106,-298.8 100,-292.8 100,-286.8 100,-286.8 100,-274.8 100,-274.8 100,-268.8 106,-262.8 112,-262.8 112,-262.8 142,-262.8 142,-262.8 148,-262.8 154,-268.8 154,-274.8 154,-274.8 154,-286.8 154,-286.8 154,-292.8 148,-298.8 142,-298.8"/>
<text text-anchor="middle" x="127" y="-275.2" font-family="Helvetica,sans-Serif" font-size="14.00">FAIL</text>
</g>
<!-- TwitterERROR -->
<g id="node6" class="node"><title>TwitterERROR</title>
<path fill="white" stroke="white" d="M69.9213,-298.8C69.9213,-298.8 28.0787,-298.8 28.0787,-298.8 22.0787,-298.8 16.0787,-292.8 16.0787,-286.8 16.0787,-286.8 16.0787,-274.8 16.0787,-274.8 16.0787,-268.8 22.0787,-262.8 28.0787,-262.8 28.0787,-262.8 69.9213,-262.8 69.9213,-262.8 75.9213,-262.8 81.9213,-268.8 81.9213,-274.8 81.9213,-274.8 81.9213,-286.8 81.9213,-286.8 81.9213,-292.8 75.9213,-298.8 69.9213,-298.8"/>
<text text-anchor="middle" x="49" y="-275.2" font-family="Helvetica,sans-Serif" font-size="14.00">ERROR</text>
</g>
<!-- BillingPASS -->
<g id="node7" class="node"><title>BillingPASS</title>
<path fill="gold" stroke="gold" d="M245,-76.8C245,-76.8 215,-76.8 215,-76.8 209,-76.8 203,-70.8 203,-64.8 203,-64.8 203,-52.8 203,-52.8 203,-46.8 209,-40.8 215,-40.8 215,-40.8 245,-40.8 245,-40.8 251,-40.8 257,-46.8 257,-52.8 257,-52.8 257,-64.8 257,-64.8 257,-70.8 251,-76.8 245,-76.8"/>
<text text-anchor="middle" x="230" y="-53.2" font-family="Helvetica,sans-Serif" font-size="14.00">PASS</text>
</g>
<!-- BillingFAIL -->
<g id="node8" class="node"><title>BillingFAIL</title>
<path fill="white" stroke="white" d="M173,-76.8C173,-76.8 143,-76.8 143,-76.8 137,-76.8 131,-70.8 131,-64.8 131,-64.8 131,-52.8 131,-52.8 131,-46.8 137,-40.8 143,-40.8 143,-40.8 173,-40.8 173,-40.8 179,-40.8 185,-46.8 185,-52.8 185,-52.8 185,-64.8 185,-64.8 185,-70.8 179,-76.8 173,-76.8"/>
<text text-anchor="middle" x="158" y="-53.2" font-family="Helvetica,sans-Serif" font-size="14.00">FAIL</text>
</g>
<!-- BillingERROR -->
<g id="node9" class="node"><title>BillingERROR</title>
<path fill="white" stroke="white" d="M100.921,-76.8C100.921,-76.8 59.0787,-76.8 59.0787,-76.8 53.0787,-76.8 47.0787,-70.8 47.0787,-64.8 47.0787,-64.8 47.0787,-52.8 47.0787,-52.8 47.0787,-46.8 53.0787,-40.8 59.0787,-40.8 59.0787,-40.8 100.921,-40.8 100.921,-40.8 106.921,-40.8 112.921,-46.8 112.921,-52.8 112.921,-52.8 112.921,-64.8 112.921,-64.8 112.921,-70.8 106.921,-76.8 100.921,-76.8"/>
<text text-anchor="middle" x="80" y="-53.2" font-family="Helvetica,sans-Serif" font-size="14.00">ERROR</text>
</g>
<!-- FacebookTwitterPASS&#45;&gt;BillingPASS -->
<g id="edge6" class="edge"><title>FacebookTwitterPASS&#45;&gt;BillingPASS</title>
<path fill="none" stroke="black" d="M230,-149.061C230,-140.363 230,-129.637 230,-118.674"/>
<polygon fill="black" stroke="black" points="233.5,-118.59 230,-108.59 226.5,-118.59 233.5,-118.59"/>
</g>
</g>
</svg>
