<?xml version="1.0" encoding="UTF-8" standalone="no"?>
<!DOCTYPE svg PUBLIC "-//W3C//DTD SVG 1.1//EN"
 "http://www.w3.org/Graphics/SVG/1.1/DTD/svg11.dtd">
<!-- Generated by graphviz version 2.30.1 (20130824.0405)
 -->
<!-- Title: GraphRoute Pages: 1 -->
<svg width="1401pt" height="2059pt"
 viewBox="0.00 0.00 1400.88 2058.80" xmlns="http://www.w3.org/2000/svg" xmlns:xlink="http://www.w3.org/1999/xlink">
<g id="graph0" class="graph" transform="scale(1 1) rotate(0) translate(4 2054.8)">
<title>GraphRoute</title>
<polygon fill="white" stroke="white" points="-4,5 -4,-2054.8 1397.88,-2054.8 1397.88,5 -4,5"/>
<text text-anchor="middle" x="696.439" y="-6.8" font-family="Helvetica,sans-Serif" font-size="14.00">Blast Lines</text>
<g id="clust1" class="cluster"><title>cluster0</title>
<polygon fill="#b3b3b3" stroke="#7f7f7f" points="221.878,-1254.8 221.878,-1988.8 758.878,-1988.8 758.878,-1254.8 221.878,-1254.8"/>
<text text-anchor="middle" x="490.378" y="-1970.8" font-family="Helvetica,sans-Serif" font-size="14.00">Facebook</text>
</g>
<g id="clust2" class="cluster"><title>cluster1</title>
<polygon fill="#b3b3b3" stroke="#7f7f7f" points="766.878,-596.8 766.878,-1330.8 1221.88,-1330.8 1221.88,-596.8 766.878,-596.8"/>
<text text-anchor="middle" x="994.378" y="-1312.8" font-family="Helvetica,sans-Serif" font-size="14.00">Twitter</text>
</g>
<g id="clust3" class="cluster"><title>cluster2</title>
<polygon fill="#b3b3b3" stroke="#7f7f7f" points="260.878,-32.8 260.878,-578.8 759.878,-578.8 759.878,-32.8 260.878,-32.8"/>
<text text-anchor="middle" x="510.378" y="-560.8" font-family="Helvetica,sans-Serif" font-size="14.00">Billing</text>
</g>
<!-- PASS Facebook VerifyFacebookToken -->
<g id="node1" class="node"><title>PASS Facebook VerifyFacebookToken</title>
<path fill="white" stroke="white" d="M473.46,-1862.8C473.46,-1862.8 242.297,-1862.8 242.297,-1862.8 236.297,-1862.8 230.297,-1856.8 230.297,-1850.8 230.297,-1850.8 230.297,-1838.8 230.297,-1838.8 230.297,-1832.8 236.297,-1826.8 242.297,-1826.8 242.297,-1826.8 473.46,-1826.8 473.46,-1826.8 479.46,-1826.8 485.46,-1832.8 485.46,-1838.8 485.46,-1838.8 485.46,-1850.8 485.46,-1850.8 485.46,-1856.8 479.46,-1862.8 473.46,-1862.8"/>
<text text-anchor="middle" x="357.878" y="-1839.2" font-family="Helvetica,sans-Serif" font-size="14.00">PASS Facebook VerifyFacebookToken</text>
</g>
<!-- PASS Facebook CanPost -->
<g id="node4" class="node"><title>PASS Facebook CanPost</title>
<path fill="white" stroke="white" d="M645.336,-1674.8C645.336,-1674.8 494.421,-1674.8 494.421,-1674.8 488.421,-1674.8 482.421,-1668.8 482.421,-1662.8 482.421,-1662.8 482.421,-1650.8 482.421,-1650.8 482.421,-1644.8 488.421,-1638.8 494.421,-1638.8 494.421,-1638.8 645.336,-1638.8 645.336,-1638.8 651.336,-1638.8 657.336,-1644.8 657.336,-1650.8 657.336,-1650.8 657.336,-1662.8 657.336,-1662.8 657.336,-1668.8 651.336,-1674.8 645.336,-1674.8"/>
<text text-anchor="middle" x="569.878" y="-1651.2" font-family="Helvetica,sans-Serif" font-size="14.00">PASS Facebook CanPost</text>
</g>
<!-- PASS Facebook VerifyFacebookToken&#45;&gt;PASS Facebook CanPost -->
<g id="edge4" class="edge"><title>PASS Facebook VerifyFacebookToken&#45;&gt;PASS Facebook CanPost</title>
<path fill="none" stroke="black" d="M377.443,-1826.63C415.463,-1793.28 499.39,-1719.64 542.756,-1681.6"/>
<polygon fill="black" stroke="black" points="545.152,-1684.15 550.361,-1674.92 540.536,-1678.89 545.152,-1684.15"/>
</g>
<!-- FAIL Facebook CanPost -->
<g id="node5" class="node"><title>FAIL Facebook CanPost</title>
<path fill="white" stroke="white" d="M429.312,-1674.8C429.312,-1674.8 286.445,-1674.8 286.445,-1674.8 280.445,-1674.8 274.445,-1668.8 274.445,-1662.8 274.445,-1662.8 274.445,-1650.8 274.445,-1650.8 274.445,-1644.8 280.445,-1638.8 286.445,-1638.8 286.445,-1638.8 429.312,-1638.8 429.312,-1638.8 435.312,-1638.8 441.312,-1644.8 441.312,-1650.8 441.312,-1650.8 441.312,-1662.8 441.312,-1662.8 441.312,-1668.8 435.312,-1674.8 429.312,-1674.8"/>
<text text-anchor="middle" x="357.878" y="-1651.2" font-family="Helvetica,sans-Serif" font-size="14.00">FAIL Facebook CanPost</text>
</g>
<!-- PASS Facebook VerifyFacebookToken&#45;&gt;FAIL Facebook CanPost -->
<g id="edge5" class="edge"><title>PASS Facebook VerifyFacebookToken&#45;&gt;FAIL Facebook CanPost</title>
<path fill="none" stroke="black" d="M357.878,-1826.63C357.878,-1794.25 357.878,-1723.89 357.878,-1685"/>
<polygon fill="black" stroke="black" points="361.378,-1684.92 357.878,-1674.92 354.378,-1684.92 361.378,-1684.92"/>
</g>
<!-- ERROR Facebook CanPost -->
<g id="node6" class="node"><title>ERROR Facebook CanPost</title>
<path fill="white" stroke="white" d="M697.017,-1768.8C697.017,-1768.8 532.739,-1768.8 532.739,-1768.8 526.739,-1768.8 520.739,-1762.8 520.739,-1756.8 520.739,-1756.8 520.739,-1744.8 520.739,-1744.8 520.739,-1738.8 526.739,-1732.8 532.739,-1732.8 532.739,-1732.8 697.017,-1732.8 697.017,-1732.8 703.017,-1732.8 709.017,-1738.8 709.017,-1744.8 709.017,-1744.8 709.017,-1756.8 709.017,-1756.8 709.017,-1762.8 703.017,-1768.8 697.017,-1768.8"/>
<text text-anchor="middle" x="614.878" y="-1745.2" font-family="Helvetica,sans-Serif" font-size="14.00">ERROR Facebook CanPost</text>
</g>
<!-- PASS Facebook VerifyFacebookToken&#45;&gt;ERROR Facebook CanPost -->
<g id="edge6" class="edge"><title>PASS Facebook VerifyFacebookToken&#45;&gt;ERROR Facebook CanPost</title>
<path fill="none" stroke="black" d="M405.616,-1826.71C448.576,-1811.33 511.79,-1788.7 557.489,-1772.34"/>
<polygon fill="black" stroke="black" points="558.726,-1775.62 566.961,-1768.95 556.367,-1769.03 558.726,-1775.62"/>
</g>
<!-- PASS Twitter VerifyTwitterToken -->
<g id="node13" class="node"><title>PASS Twitter VerifyTwitterToken</title>
<path fill="white" stroke="white" d="M1201.9,-1204.8C1201.9,-1204.8 1011.85,-1204.8 1011.85,-1204.8 1005.85,-1204.8 999.853,-1198.8 999.853,-1192.8 999.853,-1192.8 999.853,-1180.8 999.853,-1180.8 999.853,-1174.8 1005.85,-1168.8 1011.85,-1168.8 1011.85,-1168.8 1201.9,-1168.8 1201.9,-1168.8 1207.9,-1168.8 1213.9,-1174.8 1213.9,-1180.8 1213.9,-1180.8 1213.9,-1192.8 1213.9,-1192.8 1213.9,-1198.8 1207.9,-1204.8 1201.9,-1204.8"/>
<text text-anchor="middle" x="1106.88" y="-1181.2" font-family="Helvetica,sans-Serif" font-size="14.00">PASS Twitter VerifyTwitterToken</text>
</g>
<!-- PASS Facebook VerifyFacebookToken&#45;&gt;PASS Twitter VerifyTwitterToken -->
<g id="edge7" class="edge"><title>PASS Facebook VerifyFacebookToken&#45;&gt;PASS Twitter VerifyTwitterToken</title>
<path fill="none" stroke="black" d="M485.283,-1827.84C488.175,-1827.49 491.043,-1827.14 493.878,-1826.8 646.552,-1808.49 1164.88,-1811.57 1164.88,-1657.8 1164.88,-1657.8 1164.88,-1657.8 1164.88,-1561.8 1164.88,-1424.37 1157.23,-1389.06 1127.88,-1254.8 1124.93,-1241.31 1120.48,-1226.64 1116.43,-1214.47"/>
<polygon fill="black" stroke="black" points="1119.71,-1213.26 1113.17,-1204.93 1113.09,-1215.52 1119.71,-1213.26"/>
</g>
<!-- FAIL Twitter VerifyTwitterToken -->
<g id="node14" class="node"><title>FAIL Twitter VerifyTwitterToken</title>
<path fill="white" stroke="white" d="M968.88,-1204.8C968.88,-1204.8 786.877,-1204.8 786.877,-1204.8 780.877,-1204.8 774.877,-1198.8 774.877,-1192.8 774.877,-1192.8 774.877,-1180.8 774.877,-1180.8 774.877,-1174.8 780.877,-1168.8 786.877,-1168.8 786.877,-1168.8 968.88,-1168.8 968.88,-1168.8 974.88,-1168.8 980.88,-1174.8 980.88,-1180.8 980.88,-1180.8 980.88,-1192.8 980.88,-1192.8 980.88,-1198.8 974.88,-1204.8 968.88,-1204.8"/>
<text text-anchor="middle" x="877.878" y="-1181.2" font-family="Helvetica,sans-Serif" font-size="14.00">FAIL Twitter VerifyTwitterToken</text>
</g>
<!-- PASS Facebook VerifyFacebookToken&#45;&gt;FAIL Twitter VerifyTwitterToken -->
<g id="edge8" class="edge"><title>PASS Facebook VerifyFacebookToken&#45;&gt;FAIL Twitter VerifyTwitterToken</title>
<path fill="none" stroke="black" d="M485.454,-1827.48C629.035,-1808.82 847.263,-1779.48 884.878,-1768.8 998.705,-1736.47 1126.88,-1776.13 1126.88,-1657.8 1126.88,-1657.8 1126.88,-1657.8 1126.88,-1373.8 1126.88,-1312.21 1103.12,-1294.31 1055.88,-1254.8 1030.16,-1233.3 996.854,-1218.31 966.016,-1208.06"/>
<polygon fill="black" stroke="black" points="966.694,-1204.6 956.103,-1204.89 964.564,-1211.27 966.694,-1204.6"/>
</g>
<!-- ERROR Twitter VerifyTwitterToken -->
<g id="node15" class="node"><title>ERROR Twitter VerifyTwitterToken</title>
<path fill="white" stroke="white" d="M993.083,-1298.8C993.083,-1298.8 788.674,-1298.8 788.674,-1298.8 782.674,-1298.8 776.674,-1292.8 776.674,-1286.8 776.674,-1286.8 776.674,-1274.8 776.674,-1274.8 776.674,-1268.8 782.674,-1262.8 788.674,-1262.8 788.674,-1262.8 993.083,-1262.8 993.083,-1262.8 999.083,-1262.8 1005.08,-1268.8 1005.08,-1274.8 1005.08,-1274.8 1005.08,-1286.8 1005.08,-1286.8 1005.08,-1292.8 999.083,-1298.8 993.083,-1298.8"/>
<text text-anchor="middle" x="890.878" y="-1275.2" font-family="Helvetica,sans-Serif" font-size="14.00">ERROR Twitter VerifyTwitterToken</text>
</g>
<!-- PASS Facebook VerifyFacebookToken&#45;&gt;ERROR Twitter VerifyTwitterToken -->
<g id="edge9" class="edge"><title>PASS Facebook VerifyFacebookToken&#45;&gt;ERROR Twitter VerifyTwitterToken</title>
<path fill="none" stroke="black" d="M470.495,-1826.78C675.546,-1794.24 1088.88,-1720.82 1088.88,-1657.8 1088.88,-1657.8 1088.88,-1657.8 1088.88,-1561.8 1088.88,-1448.54 979.542,-1348.99 923.366,-1305.32"/>
<polygon fill="black" stroke="black" points="925.226,-1302.33 915.157,-1299.04 920.974,-1307.89 925.226,-1302.33"/>
</g>
<!-- FAIL Facebook VerifyFacebookToken -->
<g id="node2" class="node"><title>FAIL Facebook VerifyFacebookToken</title>
<path fill="white" stroke="white" d="M738.436,-1862.8C738.436,-1862.8 515.321,-1862.8 515.321,-1862.8 509.321,-1862.8 503.321,-1856.8 503.321,-1850.8 503.321,-1850.8 503.321,-1838.8 503.321,-1838.8 503.321,-1832.8 509.321,-1826.8 515.321,-1826.8 515.321,-1826.8 738.436,-1826.8 738.436,-1826.8 744.436,-1826.8 750.436,-1832.8 750.436,-1838.8 750.436,-1838.8 750.436,-1850.8 750.436,-1850.8 750.436,-1856.8 744.436,-1862.8 738.436,-1862.8"/>
<text text-anchor="middle" x="626.878" y="-1839.2" font-family="Helvetica,sans-Serif" font-size="14.00">FAIL Facebook VerifyFacebookToken</text>
</g>
<!-- FAIL Facebook VerifyFacebookToken&#45;&gt;PASS Twitter VerifyTwitterToken -->
<g id="edge10" class="edge"><title>FAIL Facebook VerifyFacebookToken&#45;&gt;PASS Twitter VerifyTwitterToken</title>
<path fill="none" stroke="black" d="M750.251,-1842.97C905.405,-1839.53 1160.42,-1825.14 1233.88,-1768.8 1276.12,-1736.4 1278.88,-1711.03 1278.88,-1657.8 1278.88,-1657.8 1278.88,-1657.8 1278.88,-1561.8 1278.88,-1424.94 1333.49,-1366.83 1254.88,-1254.8 1239.86,-1233.4 1216.31,-1218.71 1192.39,-1208.68"/>
<polygon fill="black" stroke="black" points="1193.44,-1205.34 1182.85,-1204.93 1190.88,-1211.85 1193.44,-1205.34"/>
</g>
<!-- FAIL Facebook VerifyFacebookToken&#45;&gt;FAIL Twitter VerifyTwitterToken -->
<g id="edge11" class="edge"><title>FAIL Facebook VerifyFacebookToken&#45;&gt;FAIL Twitter VerifyTwitterToken</title>
<path fill="none" stroke="black" d="M750.461,-1842.85C899.337,-1839.19 1137.84,-1824.48 1204.88,-1768.8 1244.77,-1735.66 1240.88,-1709.66 1240.88,-1657.8 1240.88,-1657.8 1240.88,-1657.8 1240.88,-1467.8 1240.88,-1363.22 1221.49,-1321.42 1140.88,-1254.8 1117.53,-1235.5 1051.28,-1218.68 991.114,-1206.73"/>
<polygon fill="black" stroke="black" points="991.618,-1203.26 981.132,-1204.78 990.275,-1210.13 991.618,-1203.26"/>
</g>
<!-- FAIL Facebook VerifyFacebookToken&#45;&gt;ERROR Twitter VerifyTwitterToken -->
<g id="edge12" class="edge"><title>FAIL Facebook VerifyFacebookToken&#45;&gt;ERROR Twitter VerifyTwitterToken</title>
<path fill="none" stroke="black" d="M750.53,-1843.02C893.924,-1839.44 1118.4,-1824.74 1178.88,-1768.8 1215.93,-1734.53 1202.88,-1708.27 1202.88,-1657.8 1202.88,-1657.8 1202.88,-1657.8 1202.88,-1561.8 1202.88,-1451.97 1149.4,-1426.94 1064.88,-1356.8 1035.16,-1332.14 996.097,-1314.32 962.518,-1302.26"/>
<polygon fill="black" stroke="black" points="963.343,-1298.84 952.748,-1298.85 961.039,-1305.45 963.343,-1298.84"/>
</g>
<!-- ERROR Facebook VerifyFacebookToken -->
<g id="node3" class="node"><title>ERROR Facebook VerifyFacebookToken</title>
<path fill="white" stroke="white" d="M720.14,-1956.8C720.14,-1956.8 475.616,-1956.8 475.616,-1956.8 469.616,-1956.8 463.616,-1950.8 463.616,-1944.8 463.616,-1944.8 463.616,-1932.8 463.616,-1932.8 463.616,-1926.8 469.616,-1920.8 475.616,-1920.8 475.616,-1920.8 720.14,-1920.8 720.14,-1920.8 726.14,-1920.8 732.14,-1926.8 732.14,-1932.8 732.14,-1932.8 732.14,-1944.8 732.14,-1944.8 732.14,-1950.8 726.14,-1956.8 720.14,-1956.8"/>
<text text-anchor="middle" x="597.878" y="-1933.2" font-family="Helvetica,sans-Serif" font-size="14.00">ERROR Facebook VerifyFacebookToken</text>
</g>
<!-- ERROR Facebook VerifyFacebookToken&#45;&gt;PASS Facebook VerifyFacebookToken -->
<g id="edge13" class="edge"><title>ERROR Facebook VerifyFacebookToken&#45;&gt;PASS Facebook VerifyFacebookToken</title>
<path fill="none" stroke="black" d="M553.299,-1920.71C513.348,-1905.4 454.642,-1882.89 412.008,-1866.55"/>
<polygon fill="black" stroke="black" points="413.216,-1863.26 402.626,-1862.95 410.71,-1869.8 413.216,-1863.26"/>
</g>
<!-- ERROR Facebook VerifyFacebookToken&#45;&gt;FAIL Facebook VerifyFacebookToken -->
<g id="edge14" class="edge"><title>ERROR Facebook VerifyFacebookToken&#45;&gt;FAIL Facebook VerifyFacebookToken</title>
<path fill="none" stroke="black" d="M603.333,-1920.5C607.586,-1907 613.568,-1888.03 618.438,-1872.58"/>
<polygon fill="black" stroke="black" points="621.78,-1873.62 621.448,-1863.03 615.104,-1871.51 621.78,-1873.62"/>
</g>
<!-- ERROR Facebook VerifyFacebookToken&#45;&gt;ERROR Facebook VerifyFacebookToken -->
<g id="edge15" class="edge"><title>ERROR Facebook VerifyFacebookToken&#45;&gt;ERROR Facebook VerifyFacebookToken</title>
<path fill="none" stroke="black" d="M732.277,-1952.29C743.143,-1949.36 749.878,-1944.86 749.878,-1938.8 749.878,-1934.82 746.978,-1931.52 741.912,-1928.89"/>
<polygon fill="black" stroke="black" points="742.87,-1925.51 732.277,-1925.31 740.432,-1932.07 742.87,-1925.51"/>
</g>
<!-- ERROR Facebook VerifyFacebookToken&#45;&gt;PASS Twitter VerifyTwitterToken -->
<g id="edge16" class="edge"><title>ERROR Facebook VerifyFacebookToken&#45;&gt;PASS Twitter VerifyTwitterToken</title>
<path fill="none" stroke="black" d="M732.437,-1934.03C904.752,-1927.36 1192.4,-1909.43 1286.88,-1862.8 1348.05,-1832.61 1392.88,-1820.01 1392.88,-1751.8 1392.88,-1751.8 1392.88,-1751.8 1392.88,-1373.8 1392.88,-1280.22 1283.94,-1231.3 1200.53,-1207.56"/>
<polygon fill="black" stroke="black" points="1201.33,-1204.15 1190.76,-1204.86 1199.46,-1210.9 1201.33,-1204.15"/>
</g>
<!-- ERROR Facebook VerifyFacebookToken&#45;&gt;FAIL Twitter VerifyTwitterToken -->
<g id="edge17" class="edge"><title>ERROR Facebook VerifyFacebookToken&#45;&gt;FAIL Twitter VerifyTwitterToken</title>
<path fill="none" stroke="black" d="M732.259,-1931.46C891.32,-1922.3 1145.52,-1901.98 1231.88,-1862.8 1298.93,-1832.37 1354.88,-1825.44 1354.88,-1751.8 1354.88,-1751.8 1354.88,-1751.8 1354.88,-1467.8 1354.88,-1348.32 1291.93,-1318.54 1190.88,-1254.8 1173.1,-1243.59 1067.06,-1222.23 983.262,-1206.64"/>
<polygon fill="black" stroke="black" points="983.89,-1203.2 973.42,-1204.81 982.614,-1210.08 983.89,-1203.2"/>
</g>
<!-- ERROR Facebook VerifyFacebookToken&#45;&gt;ERROR Twitter VerifyTwitterToken -->
<g id="edge18" class="edge"><title>ERROR Facebook VerifyFacebookToken&#45;&gt;ERROR Twitter VerifyTwitterToken</title>
<path fill="none" stroke="black" d="M732.273,-1930.4C940.378,-1915.21 1316.88,-1871.23 1316.88,-1751.8 1316.88,-1751.8 1316.88,-1751.8 1316.88,-1561.8 1316.88,-1406.26 1116.12,-1332.32 990.239,-1301.24"/>
<polygon fill="black" stroke="black" points="990.724,-1297.76 980.182,-1298.81 989.079,-1304.56 990.724,-1297.76"/>
</g>
<!-- PASS Facebook ShouldPost -->
<g id="node7" class="node"><title>PASS Facebook ShouldPost</title>
<path fill="white" stroke="white" d="M503.269,-1486.8C503.269,-1486.8 334.488,-1486.8 334.488,-1486.8 328.488,-1486.8 322.488,-1480.8 322.488,-1474.8 322.488,-1474.8 322.488,-1462.8 322.488,-1462.8 322.488,-1456.8 328.488,-1450.8 334.488,-1450.8 334.488,-1450.8 503.269,-1450.8 503.269,-1450.8 509.269,-1450.8 515.269,-1456.8 515.269,-1462.8 515.269,-1462.8 515.269,-1474.8 515.269,-1474.8 515.269,-1480.8 509.269,-1486.8 503.269,-1486.8"/>
<text text-anchor="middle" x="418.878" y="-1463.2" font-family="Helvetica,sans-Serif" font-size="14.00">PASS Facebook ShouldPost</text>
</g>
<!-- PASS Facebook CanPost&#45;&gt;PASS Facebook ShouldPost -->
<g id="edge19" class="edge"><title>PASS Facebook CanPost&#45;&gt;PASS Facebook ShouldPost</title>
<path fill="none" stroke="black" d="M554.632,-1638.75C541.283,-1623.7 521.481,-1601.06 504.878,-1580.8 481.171,-1551.88 454.996,-1517.76 437.823,-1495.06"/>
<polygon fill="black" stroke="black" points="440.523,-1492.83 431.706,-1486.95 434.935,-1497.04 440.523,-1492.83"/>
</g>
<!-- FAIL Facebook ShouldPost -->
<g id="node8" class="node"><title>FAIL Facebook ShouldPost</title>
<path fill="white" stroke="white" d="M706.245,-1486.8C706.245,-1486.8 545.512,-1486.8 545.512,-1486.8 539.512,-1486.8 533.512,-1480.8 533.512,-1474.8 533.512,-1474.8 533.512,-1462.8 533.512,-1462.8 533.512,-1456.8 539.512,-1450.8 545.512,-1450.8 545.512,-1450.8 706.245,-1450.8 706.245,-1450.8 712.245,-1450.8 718.245,-1456.8 718.245,-1462.8 718.245,-1462.8 718.245,-1474.8 718.245,-1474.8 718.245,-1480.8 712.245,-1486.8 706.245,-1486.8"/>
<text text-anchor="middle" x="625.878" y="-1463.2" font-family="Helvetica,sans-Serif" font-size="14.00">FAIL Facebook ShouldPost</text>
</g>
<!-- PASS Facebook CanPost&#45;&gt;FAIL Facebook ShouldPost -->
<g id="edge20" class="edge"><title>PASS Facebook CanPost&#45;&gt;FAIL Facebook ShouldPost</title>
<path fill="none" stroke="black" d="M550.49,-1638.75C528.049,-1616.85 496.293,-1577.74 513.878,-1544.8 526.471,-1521.21 550.133,-1503.74 572.476,-1491.62"/>
<polygon fill="black" stroke="black" points="574.318,-1494.61 581.603,-1486.92 571.111,-1488.39 574.318,-1494.61"/>
</g>
<!-- ERROR Facebook ShouldPost -->
<g id="node9" class="node"><title>ERROR Facebook ShouldPost</title>
<path fill="white" stroke="white" d="M718.448,-1580.8C718.448,-1580.8 535.309,-1580.8 535.309,-1580.8 529.309,-1580.8 523.309,-1574.8 523.309,-1568.8 523.309,-1568.8 523.309,-1556.8 523.309,-1556.8 523.309,-1550.8 529.309,-1544.8 535.309,-1544.8 535.309,-1544.8 718.448,-1544.8 718.448,-1544.8 724.448,-1544.8 730.448,-1550.8 730.448,-1556.8 730.448,-1556.8 730.448,-1568.8 730.448,-1568.8 730.448,-1574.8 724.448,-1580.8 718.448,-1580.8"/>
<text text-anchor="middle" x="626.878" y="-1557.2" font-family="Helvetica,sans-Serif" font-size="14.00">ERROR Facebook ShouldPost</text>
</g>
<!-- PASS Facebook CanPost&#45;&gt;ERROR Facebook ShouldPost -->
<g id="edge21" class="edge"><title>PASS Facebook CanPost&#45;&gt;ERROR Facebook ShouldPost</title>
<path fill="none" stroke="black" d="M580.6,-1638.5C589.118,-1624.75 601.166,-1605.3 610.833,-1589.7"/>
<polygon fill="black" stroke="black" points="613.914,-1591.37 616.205,-1581.03 607.963,-1587.68 613.914,-1591.37"/>
</g>
<!-- PASS Facebook CanPost&#45;&gt;PASS Twitter VerifyTwitterToken -->
<g id="edge22" class="edge"><title>PASS Facebook CanPost&#45;&gt;PASS Twitter VerifyTwitterToken</title>
<path fill="none" stroke="black" d="M657.373,-1644.31C741.877,-1631.76 862.407,-1609.54 899.878,-1580.8 1026.47,-1483.71 1083.64,-1286.89 1100.92,-1214.93"/>
<polygon fill="black" stroke="black" points="1104.41,-1215.4 1103.27,-1204.87 1097.59,-1213.81 1104.41,-1215.4"/>
</g>
<!-- PASS Facebook CanPost&#45;&gt;FAIL Twitter VerifyTwitterToken -->
<g id="edge23" class="edge"><title>PASS Facebook CanPost&#45;&gt;FAIL Twitter VerifyTwitterToken</title>
<path fill="none" stroke="black" d="M482.38,-1641.17C341.219,-1615.07 78.8783,-1555.09 78.8783,-1469.8 78.8783,-1469.8 78.8783,-1469.8 78.8783,-1373.8 78.8783,-1311.52 99.8903,-1287.53 152.878,-1254.8 203.625,-1223.46 573.655,-1201.91 764.569,-1192.75"/>
<polygon fill="black" stroke="black" points="764.82,-1196.24 774.642,-1192.27 764.487,-1189.25 764.82,-1196.24"/>
</g>
<!-- PASS Facebook CanPost&#45;&gt;ERROR Twitter VerifyTwitterToken -->
<g id="edge24" class="edge"><title>PASS Facebook CanPost&#45;&gt;ERROR Twitter VerifyTwitterToken</title>
<path fill="none" stroke="black" d="M657.289,-1645.88C737.316,-1634.84 847.362,-1614.03 874.878,-1580.8 940.42,-1501.64 914.275,-1366.43 898.966,-1308.95"/>
<polygon fill="black" stroke="black" points="902.295,-1307.85 896.258,-1299.15 895.548,-1309.72 902.295,-1307.85"/>
</g>
<!-- FAIL Facebook CanPost&#45;&gt;PASS Twitter VerifyTwitterToken -->
<g id="edge25" class="edge"><title>FAIL Facebook CanPost&#45;&gt;PASS Twitter VerifyTwitterToken</title>
<path fill="none" stroke="black" d="M274.434,-1648.89C228.737,-1640.35 175.687,-1621.61 146.878,-1580.8 113.177,-1533.05 20.6228,-1426.45 240.878,-1254.8 304.611,-1205.13 869.94,-1213.01 989.642,-1204.57"/>
<polygon fill="black" stroke="black" points="990.139,-1208.04 999.803,-1203.7 989.541,-1201.06 990.139,-1208.04"/>
</g>
<!-- FAIL Facebook CanPost&#45;&gt;FAIL Twitter VerifyTwitterToken -->
<g id="edge26" class="edge"><title>FAIL Facebook CanPost&#45;&gt;FAIL Twitter VerifyTwitterToken</title>
<path fill="none" stroke="black" d="M274.318,-1647.1C187.926,-1636.39 60.9773,-1615.24 26.8783,-1580.8 -8.63489,-1544.93 2.8783,-1520.27 2.8783,-1469.8 2.8783,-1469.8 2.8783,-1469.8 2.8783,-1373.8 2.8783,-1310.56 26.5489,-1287.16 80.8783,-1254.8 138.179,-1220.67 558.397,-1200.03 764.507,-1191.86"/>
<polygon fill="black" stroke="black" points="764.905,-1195.34 774.76,-1191.45 764.63,-1188.35 764.905,-1195.34"/>
</g>
<!-- FAIL Facebook CanPost&#45;&gt;ERROR Twitter VerifyTwitterToken -->
<g id="edge27" class="edge"><title>FAIL Facebook CanPost&#45;&gt;ERROR Twitter VerifyTwitterToken</title>
<path fill="none" stroke="black" d="M441.536,-1642.05C554.812,-1623.16 744.389,-1590.39 756.878,-1580.8 846.696,-1511.8 877.858,-1369.26 887.273,-1309.31"/>
<polygon fill="black" stroke="black" points="890.781,-1309.52 888.788,-1299.12 883.857,-1308.5 890.781,-1309.52"/>
</g>
<!-- ERROR Facebook CanPost&#45;&gt;PASS Facebook CanPost -->
<g id="edge28" class="edge"><title>ERROR Facebook CanPost&#45;&gt;PASS Facebook CanPost</title>
<path fill="none" stroke="black" d="M606.414,-1732.5C599.752,-1718.87 590.355,-1699.66 582.76,-1684.14"/>
<polygon fill="black" stroke="black" points="585.842,-1682.47 578.304,-1675.03 579.554,-1685.55 585.842,-1682.47"/>
</g>
<!-- ERROR Facebook CanPost&#45;&gt;FAIL Facebook CanPost -->
<g id="edge29" class="edge"><title>ERROR Facebook CanPost&#45;&gt;FAIL Facebook CanPost</title>
<path fill="none" stroke="black" d="M567.141,-1732.71C524.181,-1717.33 460.967,-1694.7 415.268,-1678.34"/>
<polygon fill="black" stroke="black" points="416.39,-1675.03 405.795,-1674.95 414.031,-1681.62 416.39,-1675.03"/>
</g>
<!-- ERROR Facebook CanPost&#45;&gt;ERROR Facebook CanPost -->
<g id="edge30" class="edge"><title>ERROR Facebook CanPost&#45;&gt;ERROR Facebook CanPost</title>
<path fill="none" stroke="black" d="M709.251,-1765.74C719.947,-1762.94 726.878,-1757.96 726.878,-1750.8 726.878,-1746.1 723.893,-1742.34 718.818,-1739.52"/>
<polygon fill="black" stroke="black" points="719.842,-1736.17 709.251,-1735.86 717.342,-1742.7 719.842,-1736.17"/>
</g>
<!-- ERROR Facebook CanPost&#45;&gt;PASS Twitter VerifyTwitterToken -->
<g id="edge31" class="edge"><title>ERROR Facebook CanPost&#45;&gt;PASS Twitter VerifyTwitterToken</title>
<path fill="none" stroke="black" d="M709.383,-1740.52C804.584,-1729.47 943.185,-1708.19 984.878,-1674.8 1129.57,-1558.92 1118.05,-1299.46 1110.01,-1214.96"/>
<polygon fill="black" stroke="black" points="1113.48,-1214.48 1108.99,-1204.89 1106.52,-1215.19 1113.48,-1214.48"/>
</g>
<!-- ERROR Facebook CanPost&#45;&gt;FAIL Twitter VerifyTwitterToken -->
<g id="edge32" class="edge"><title>ERROR Facebook CanPost&#45;&gt;FAIL Twitter VerifyTwitterToken</title>
<path fill="none" stroke="black" d="M709.199,-1745.81C826.893,-1735.18 1012.88,-1697.27 1012.88,-1563.8 1012.88,-1563.8 1012.88,-1563.8 1012.88,-1467.8 1012.88,-1372.76 1083.98,-1334.29 1031.88,-1254.8 1017.7,-1233.16 994.848,-1218.48 971.043,-1208.52"/>
<polygon fill="black" stroke="black" points="972.118,-1205.19 961.53,-1204.8 969.569,-1211.7 972.118,-1205.19"/>
</g>
<!-- ERROR Facebook CanPost&#45;&gt;ERROR Twitter VerifyTwitterToken -->
<g id="edge33" class="edge"><title>ERROR Facebook CanPost&#45;&gt;ERROR Twitter VerifyTwitterToken</title>
<path fill="none" stroke="black" d="M665.233,-1732.79C728.912,-1708.76 837.726,-1658.89 899.878,-1580.8 962.202,-1502.5 946.551,-1454.04 922.878,-1356.8 918.77,-1339.92 911.25,-1322 904.531,-1307.9"/>
<polygon fill="black" stroke="black" points="907.616,-1306.25 900.06,-1298.82 901.336,-1309.34 907.616,-1306.25"/>
</g>
<!-- PASS Facebook Post -->
<g id="node10" class="node"><title>PASS Facebook Post</title>
<path fill="#00ee00" stroke="#00ee00" d="M434.076,-1298.8C434.076,-1298.8 309.681,-1298.8 309.681,-1298.8 303.681,-1298.8 297.681,-1292.8 297.681,-1286.8 297.681,-1286.8 297.681,-1274.8 297.681,-1274.8 297.681,-1268.8 303.681,-1262.8 309.681,-1262.8 309.681,-1262.8 434.076,-1262.8 434.076,-1262.8 440.076,-1262.8 446.076,-1268.8 446.076,-1274.8 446.076,-1274.8 446.076,-1286.8 446.076,-1286.8 446.076,-1292.8 440.076,-1298.8 434.076,-1298.8"/>
<text text-anchor="middle" x="371.878" y="-1275.2" font-family="Helvetica,sans-Serif" font-size="14.00">PASS Facebook Post</text>
</g>
<!-- PASS Facebook ShouldPost&#45;&gt;PASS Facebook Post -->
<g id="edge34" class="edge"><title>PASS Facebook ShouldPost&#45;&gt;PASS Facebook Post</title>
<path fill="none" stroke="black" d="M414.541,-1450.63C406.357,-1418.25 388.578,-1347.89 378.751,-1309"/>
<polygon fill="black" stroke="black" points="382.049,-1307.76 376.205,-1298.92 375.262,-1309.48 382.049,-1307.76"/>
</g>
<!-- FAIL Facebook Post -->
<g id="node11" class="node"><title>FAIL Facebook Post</title>
<path fill="white" stroke="white" d="M594.052,-1298.8C594.052,-1298.8 477.705,-1298.8 477.705,-1298.8 471.705,-1298.8 465.705,-1292.8 465.705,-1286.8 465.705,-1286.8 465.705,-1274.8 465.705,-1274.8 465.705,-1268.8 471.705,-1262.8 477.705,-1262.8 477.705,-1262.8 594.052,-1262.8 594.052,-1262.8 600.052,-1262.8 606.052,-1268.8 606.052,-1274.8 606.052,-1274.8 606.052,-1286.8 606.052,-1286.8 606.052,-1292.8 600.052,-1298.8 594.052,-1298.8"/>
<text text-anchor="middle" x="535.878" y="-1275.2" font-family="Helvetica,sans-Serif" font-size="14.00">FAIL Facebook Post</text>
</g>
<!-- PASS Facebook ShouldPost&#45;&gt;FAIL Facebook Post -->
<g id="edge35" class="edge"><title>PASS Facebook ShouldPost&#45;&gt;FAIL Facebook Post</title>
<path fill="none" stroke="black" d="M420.147,-1450.76C422.528,-1427.82 429.25,-1386.5 447.878,-1356.8 460.896,-1336.05 481.499,-1318.04 499.498,-1304.87"/>
<polygon fill="black" stroke="black" points="501.934,-1307.44 508.08,-1298.81 497.893,-1301.72 501.934,-1307.44"/>
</g>
<!-- ERROR Facebook Post -->
<g id="node12" class="node"><title>ERROR Facebook Post</title>
<path fill="white" stroke="white" d="M608.254,-1392.8C608.254,-1392.8 469.502,-1392.8 469.502,-1392.8 463.502,-1392.8 457.502,-1386.8 457.502,-1380.8 457.502,-1380.8 457.502,-1368.8 457.502,-1368.8 457.502,-1362.8 463.502,-1356.8 469.502,-1356.8 469.502,-1356.8 608.254,-1356.8 608.254,-1356.8 614.254,-1356.8 620.254,-1362.8 620.254,-1368.8 620.254,-1368.8 620.254,-1380.8 620.254,-1380.8 620.254,-1386.8 614.254,-1392.8 608.254,-1392.8"/>
<text text-anchor="middle" x="538.878" y="-1369.2" font-family="Helvetica,sans-Serif" font-size="14.00">ERROR Facebook Post</text>
</g>
<!-- PASS Facebook ShouldPost&#45;&gt;ERROR Facebook Post -->
<g id="edge36" class="edge"><title>PASS Facebook ShouldPost&#45;&gt;ERROR Facebook Post</title>
<path fill="none" stroke="black" d="M441.168,-1450.71C460.077,-1436.21 487.388,-1415.28 508.331,-1399.22"/>
<polygon fill="black" stroke="black" points="510.494,-1401.97 516.301,-1393.11 506.235,-1396.42 510.494,-1401.97"/>
</g>
<!-- PASS Facebook ShouldPost&#45;&gt;PASS Twitter VerifyTwitterToken -->
<g id="edge37" class="edge"><title>PASS Facebook ShouldPost&#45;&gt;PASS Twitter VerifyTwitterToken</title>
<path fill="none" stroke="black" d="M384.977,-1450.7C360.524,-1437.24 327.753,-1416.79 303.878,-1392.8 258.836,-1347.53 220.303,-1301.48 263.878,-1254.8 317.276,-1197.6 871.98,-1212.34 989.547,-1204.55"/>
<polygon fill="black" stroke="black" points="990.129,-1208.01 999.802,-1203.69 989.546,-1201.03 990.129,-1208.01"/>
</g>
<!-- PASS Facebook ShouldPost&#45;&gt;FAIL Twitter VerifyTwitterToken -->
<g id="edge38" class="edge"><title>PASS Facebook ShouldPost&#45;&gt;FAIL Twitter VerifyTwitterToken</title>
<path fill="none" stroke="black" d="M322.535,-1456.16C283.012,-1446.1 240.959,-1427.43 216.878,-1392.8 181.861,-1342.45 175.754,-1300.3 216.878,-1254.8 252.838,-1215.01 585.425,-1197.67 764.661,-1191.16"/>
<polygon fill="black" stroke="black" points="764.79,-1194.66 774.659,-1190.81 764.54,-1187.67 764.79,-1194.66"/>
</g>
<!-- PASS Facebook ShouldPost&#45;&gt;ERROR Twitter VerifyTwitterToken -->
<g id="edge39" class="edge"><title>PASS Facebook ShouldPost&#45;&gt;ERROR Twitter VerifyTwitterToken</title>
<path fill="none" stroke="black" d="M476.65,-1450.71C523.113,-1436.51 589.821,-1415.09 646.878,-1392.8 685.043,-1377.89 786.14,-1330.98 845.544,-1303.14"/>
<polygon fill="black" stroke="black" points="847.136,-1306.26 854.703,-1298.85 844.163,-1299.92 847.136,-1306.26"/>
</g>
<!-- FAIL Facebook ShouldPost&#45;&gt;PASS Twitter VerifyTwitterToken -->
<g id="edge40" class="edge"><title>FAIL Facebook ShouldPost&#45;&gt;PASS Twitter VerifyTwitterToken</title>
<path fill="none" stroke="black" d="M547.692,-1450.77C422.357,-1420.18 199.127,-1350.1 287.878,-1254.8 339.402,-1199.48 874.789,-1212.25 989.507,-1204.55"/>
<polygon fill="black" stroke="black" points="990.131,-1208.01 999.801,-1203.68 989.542,-1201.03 990.131,-1208.01"/>
</g>
<!-- FAIL Facebook ShouldPost&#45;&gt;FAIL Twitter VerifyTwitterToken -->
<g id="edge41" class="edge"><title>FAIL Facebook ShouldPost&#45;&gt;FAIL Twitter VerifyTwitterToken</title>
<path fill="none" stroke="black" d="M630.493,-1450.56C641.876,-1411.03 674.819,-1312.8 734.878,-1254.8 756.131,-1234.28 784.831,-1219.16 810.942,-1208.53"/>
<polygon fill="black" stroke="black" points="812.391,-1211.72 820.427,-1204.82 809.839,-1205.21 812.391,-1211.72"/>
</g>
<!-- FAIL Facebook ShouldPost&#45;&gt;ERROR Twitter VerifyTwitterToken -->
<g id="edge42" class="edge"><title>FAIL Facebook ShouldPost&#45;&gt;ERROR Twitter VerifyTwitterToken</title>
<path fill="none" stroke="black" d="M650.334,-1450.63C698.155,-1417.07 804.076,-1342.73 857.982,-1304.89"/>
<polygon fill="black" stroke="black" points="860.308,-1307.53 866.482,-1298.92 856.286,-1301.8 860.308,-1307.53"/>
</g>
<!-- ERROR Facebook ShouldPost&#45;&gt;PASS Facebook ShouldPost -->
<g id="edge43" class="edge"><title>ERROR Facebook ShouldPost&#45;&gt;PASS Facebook ShouldPost</title>
<path fill="none" stroke="black" d="M588.243,-1544.71C554.055,-1529.59 504.02,-1507.46 467.195,-1491.17"/>
<polygon fill="black" stroke="black" points="468.221,-1487.8 457.659,-1486.95 465.389,-1494.2 468.221,-1487.8"/>
</g>
<!-- ERROR Facebook ShouldPost&#45;&gt;FAIL Facebook ShouldPost -->
<g id="edge44" class="edge"><title>ERROR Facebook ShouldPost&#45;&gt;FAIL Facebook ShouldPost</title>
<path fill="none" stroke="black" d="M626.69,-1544.5C626.546,-1531.26 626.345,-1512.75 626.179,-1497.46"/>
<polygon fill="black" stroke="black" points="629.674,-1496.99 626.066,-1487.03 622.675,-1497.06 629.674,-1496.99"/>
</g>
<!-- ERROR Facebook ShouldPost&#45;&gt;ERROR Facebook ShouldPost -->
<g id="edge45" class="edge"><title>ERROR Facebook ShouldPost&#45;&gt;ERROR Facebook ShouldPost</title>
<path fill="none" stroke="black" d="M730.58,-1577.29C741.138,-1574.42 747.878,-1569.59 747.878,-1562.8 747.878,-1558.34 744.976,-1554.73 739.996,-1551.96"/>
<polygon fill="black" stroke="black" points="741.169,-1548.66 730.58,-1548.31 738.638,-1555.19 741.169,-1548.66"/>
</g>
<!-- ERROR Facebook ShouldPost&#45;&gt;PASS Twitter VerifyTwitterToken -->
<g id="edge46" class="edge"><title>ERROR Facebook ShouldPost&#45;&gt;PASS Twitter VerifyTwitterToken</title>
<path fill="none" stroke="black" d="M661.522,-1544.67C683.766,-1531.83 711.31,-1512.13 726.878,-1486.8 781.707,-1397.59 694.59,-1329.58 767.878,-1254.8 776.078,-1246.43 900.511,-1223.33 996.264,-1206.59"/>
<polygon fill="black" stroke="black" points="997.065,-1210 1006.32,-1204.83 995.863,-1203.1 997.065,-1210"/>
</g>
<!-- ERROR Facebook ShouldPost&#45;&gt;FAIL Twitter VerifyTwitterToken -->
<g id="edge47" class="edge"><title>ERROR Facebook ShouldPost&#45;&gt;FAIL Twitter VerifyTwitterToken</title>
<path fill="none" stroke="black" d="M523.417,-1548.56C460.297,-1537.74 379.26,-1518.82 312.878,-1486.8 206.812,-1435.63 105.715,-1341.99 184.878,-1254.8 223.026,-1212.79 578.129,-1196.36 764.64,-1190.59"/>
<polygon fill="black" stroke="black" points="764.871,-1194.08 774.76,-1190.28 764.658,-1187.08 764.871,-1194.08"/>
</g>
<!-- ERROR Facebook ShouldPost&#45;&gt;ERROR Twitter VerifyTwitterToken -->
<g id="edge48" class="edge"><title>ERROR Facebook ShouldPost&#45;&gt;ERROR Twitter VerifyTwitterToken</title>
<path fill="none" stroke="black" d="M669.32,-1544.67C697.575,-1531.77 734.256,-1512 760.878,-1486.8 775.892,-1472.59 844.264,-1359.73 875.378,-1307.79"/>
<polygon fill="black" stroke="black" points="878.429,-1309.51 880.56,-1299.13 872.422,-1305.91 878.429,-1309.51"/>
</g>
<!-- PASS Facebook Post&#45;&gt;PASS Twitter VerifyTwitterToken -->
<g id="edge49" class="edge"><title>PASS Facebook Post&#45;&gt;PASS Twitter VerifyTwitterToken</title>
<path fill="none" stroke="black" d="M423.462,-1262.72C434.088,-1259.69 445.272,-1256.85 455.878,-1254.8 686.701,-1210.09 751.425,-1232.43 989.778,-1204.76"/>
<polygon fill="black" stroke="black" points="990.269,-1208.23 999.791,-1203.58 989.45,-1201.28 990.269,-1208.23"/>
</g>
<!-- PASS Facebook Post&#45;&gt;FAIL Twitter VerifyTwitterToken -->
<g id="edge50" class="edge"><title>PASS Facebook Post&#45;&gt;FAIL Twitter VerifyTwitterToken</title>
<path fill="none" stroke="black" d="M425.373,-1262.73C435.446,-1259.85 445.937,-1257.06 455.878,-1254.8 559.558,-1231.25 679.42,-1213.07 764.846,-1201.63"/>
<polygon fill="black" stroke="black" points="765.376,-1205.09 774.827,-1200.3 764.453,-1198.15 765.376,-1205.09"/>
</g>
<!-- PASS Facebook Post&#45;&gt;ERROR Twitter VerifyTwitterToken -->
<g id="edge51" class="edge"><title>PASS Facebook Post&#45;&gt;ERROR Twitter VerifyTwitterToken</title>
<path fill="none" stroke="black" d="M391.075,-1298.94C408.706,-1314.25 436.353,-1335.05 464.878,-1343.8 526.276,-1362.64 691.142,-1357.53 753.878,-1343.8 788.993,-1336.11 825.853,-1318.55 852.483,-1303.91"/>
<polygon fill="black" stroke="black" points="854.447,-1306.82 861.457,-1298.88 851.023,-1300.72 854.447,-1306.82"/>
</g>
<!-- PASS Billing VerifyCreditCard -->
<g id="node25" class="node"><title>PASS Billing VerifyCreditCard</title>
<path fill="white" stroke="white" d="M529.998,-452.8C529.998,-452.8 353.758,-452.8 353.758,-452.8 347.758,-452.8 341.758,-446.8 341.758,-440.8 341.758,-440.8 341.758,-428.8 341.758,-428.8 341.758,-422.8 347.758,-416.8 353.758,-416.8 353.758,-416.8 529.998,-416.8 529.998,-416.8 535.998,-416.8 541.998,-422.8 541.998,-428.8 541.998,-428.8 541.998,-440.8 541.998,-440.8 541.998,-446.8 535.998,-452.8 529.998,-452.8"/>
<text text-anchor="middle" x="441.878" y="-429.2" font-family="Helvetica,sans-Serif" font-size="14.00">PASS Billing VerifyCreditCard</text>
</g>
<!-- PASS Facebook Post&#45;&gt;PASS Billing VerifyCreditCard -->
<g id="edge52" class="edge"><title>PASS Facebook Post&#45;&gt;PASS Billing VerifyCreditCard</title>
<path fill="none" stroke="black" d="M372.34,-1262.62C373.182,-1229.81 374.878,-1155.97 374.878,-1093.8 374.878,-1093.8 374.878,-1093.8 374.878,-621.8 374.878,-561.877 406.039,-497.179 425.859,-462.089"/>
<polygon fill="black" stroke="black" points="429.136,-463.414 431.114,-453.005 423.077,-459.909 429.136,-463.414"/>
</g>
<!-- FAIL Billing VerifyCreditCard -->
<g id="node26" class="node"><title>FAIL Billing VerifyCreditCard</title>
<path fill="white" stroke="white" d="M739.974,-452.8C739.974,-452.8 571.782,-452.8 571.782,-452.8 565.782,-452.8 559.782,-446.8 559.782,-440.8 559.782,-440.8 559.782,-428.8 559.782,-428.8 559.782,-422.8 565.782,-416.8 571.782,-416.8 571.782,-416.8 739.974,-416.8 739.974,-416.8 745.974,-416.8 751.974,-422.8 751.974,-428.8 751.974,-428.8 751.974,-440.8 751.974,-440.8 751.974,-446.8 745.974,-452.8 739.974,-452.8"/>
<text text-anchor="middle" x="655.878" y="-429.2" font-family="Helvetica,sans-Serif" font-size="14.00">FAIL Billing VerifyCreditCard</text>
</g>
<!-- PASS Facebook Post&#45;&gt;FAIL Billing VerifyCreditCard -->
<g id="edge53" class="edge"><title>PASS Facebook Post&#45;&gt;FAIL Billing VerifyCreditCard</title>
<path fill="none" stroke="black" d="M379.378,-1262.74C392.878,-1230.44 419.878,-1157.83 419.878,-1093.8 419.878,-1093.8 419.878,-1093.8 419.878,-621.8 419.878,-535.106 519.329,-482.587 589.113,-456.406"/>
<polygon fill="black" stroke="black" points="590.557,-459.605 598.749,-452.886 588.155,-453.03 590.557,-459.605"/>
</g>
<!-- ERROR Billing VerifyCreditCard -->
<g id="node27" class="node"><title>ERROR Billing VerifyCreditCard</title>
<path fill="white" stroke="white" d="M700.178,-546.8C700.178,-546.8 509.579,-546.8 509.579,-546.8 503.579,-546.8 497.579,-540.8 497.579,-534.8 497.579,-534.8 497.579,-522.8 497.579,-522.8 497.579,-516.8 503.579,-510.8 509.579,-510.8 509.579,-510.8 700.178,-510.8 700.178,-510.8 706.178,-510.8 712.178,-516.8 712.178,-522.8 712.178,-522.8 712.178,-534.8 712.178,-534.8 712.178,-540.8 706.178,-546.8 700.178,-546.8"/>
<text text-anchor="middle" x="604.878" y="-523.2" font-family="Helvetica,sans-Serif" font-size="14.00">ERROR Billing VerifyCreditCard</text>
</g>
<!-- PASS Facebook Post&#45;&gt;ERROR Billing VerifyCreditCard -->
<g id="edge54" class="edge"><title>PASS Facebook Post&#45;&gt;ERROR Billing VerifyCreditCard</title>
<path fill="none" stroke="black" d="M402.159,-1262.72C448.292,-1234.19 530.878,-1172.18 530.878,-1093.8 530.878,-1093.8 530.878,-1093.8 530.878,-715.8 530.878,-654.866 565.59,-590.15 587.466,-555.416"/>
<polygon fill="black" stroke="black" points="590.513,-557.148 592.989,-546.846 584.63,-553.355 590.513,-557.148"/>
</g>
<!-- FAIL Facebook Post&#45;&gt;PASS Twitter VerifyTwitterToken -->
<g id="edge55" class="edge"><title>FAIL Facebook Post&#45;&gt;PASS Twitter VerifyTwitterToken</title>
<path fill="none" stroke="black" d="M606.18,-1268.47C702.271,-1252.99 875.839,-1225.03 991.235,-1206.43"/>
<polygon fill="black" stroke="black" points="991.857,-1209.88 1001.17,-1204.83 990.744,-1202.97 991.857,-1209.88"/>
</g>
<!-- FAIL Facebook Post&#45;&gt;FAIL Twitter VerifyTwitterToken -->
<g id="edge56" class="edge"><title>FAIL Facebook Post&#45;&gt;FAIL Twitter VerifyTwitterToken</title>
<path fill="none" stroke="black" d="M592.961,-1262.75C602.278,-1260.04 611.837,-1257.31 620.878,-1254.8 680.862,-1238.16 749.051,-1220.44 800.11,-1207.41"/>
<polygon fill="black" stroke="black" points="801.261,-1210.72 810.086,-1204.86 799.532,-1203.94 801.261,-1210.72"/>
</g>
<!-- FAIL Facebook Post&#45;&gt;ERROR Twitter VerifyTwitterToken -->
<g id="edge57" class="edge"><title>FAIL Facebook Post&#45;&gt;ERROR Twitter VerifyTwitterToken</title>
<path fill="none" stroke="black" d="M606.254,-1280.8C659.611,-1280.8 712.967,-1280.8 766.323,-1280.8"/>
<polygon fill="black" stroke="black" points="766.64,-1284.3 776.64,-1280.8 766.64,-1277.3 766.64,-1284.3"/>
</g>
<!-- ERROR Facebook Post&#45;&gt;PASS Facebook Post -->
<g id="edge58" class="edge"><title>ERROR Facebook Post&#45;&gt;PASS Facebook Post</title>
<path fill="none" stroke="black" d="M504.753,-1356.61C489.68,-1348.89 471.803,-1339.56 455.878,-1330.8 440.444,-1322.31 423.637,-1312.6 409.139,-1304.07"/>
<polygon fill="black" stroke="black" points="410.835,-1301.01 400.444,-1298.94 407.277,-1307.04 410.835,-1301.01"/>
</g>
<!-- ERROR Facebook Post&#45;&gt;FAIL Facebook Post -->
<g id="edge59" class="edge"><title>ERROR Facebook Post&#45;&gt;FAIL Facebook Post</title>
<path fill="none" stroke="black" d="M538.314,-1356.5C537.882,-1343.26 537.279,-1324.75 536.78,-1309.46"/>
<polygon fill="black" stroke="black" points="540.264,-1308.91 536.44,-1299.03 533.268,-1309.14 540.264,-1308.91"/>
</g>
<!-- ERROR Facebook Post&#45;&gt;ERROR Facebook Post -->
<g id="edge60" class="edge"><title>ERROR Facebook Post&#45;&gt;ERROR Facebook Post</title>
<path fill="none" stroke="black" d="M620.439,-1390.25C630.941,-1387.57 637.878,-1382.42 637.878,-1374.8 637.878,-1369.8 634.89,-1365.86 629.868,-1362.99"/>
<polygon fill="black" stroke="black" points="631.029,-1359.69 620.439,-1359.35 628.509,-1366.22 631.029,-1359.69"/>
</g>
<!-- ERROR Facebook Post&#45;&gt;PASS Twitter VerifyTwitterToken -->
<g id="edge61" class="edge"><title>ERROR Facebook Post&#45;&gt;PASS Twitter VerifyTwitterToken</title>
<path fill="none" stroke="black" d="M595.19,-1356.78C613.625,-1350.02 633.754,-1341.32 650.878,-1330.8 693.773,-1304.44 689.695,-1277.01 734.878,-1254.8 757.712,-1243.58 889.404,-1221.36 989.68,-1205.59"/>
<polygon fill="black" stroke="black" points="990.251,-1209.05 999.588,-1204.04 989.166,-1202.13 990.251,-1209.05"/>
</g>
<!-- ERROR Facebook Post&#45;&gt;FAIL Twitter VerifyTwitterToken -->
<g id="edge62" class="edge"><title>ERROR Facebook Post&#45;&gt;FAIL Twitter VerifyTwitterToken</title>
<path fill="none" stroke="black" d="M578.32,-1356.62C590.987,-1349.83 604.429,-1341.15 614.878,-1330.8 642.613,-1303.34 628.321,-1279.08 658.878,-1254.8 689.24,-1230.67 728.256,-1215.21 764.924,-1205.3"/>
<polygon fill="black" stroke="black" points="765.884,-1208.67 774.69,-1202.78 764.132,-1201.89 765.884,-1208.67"/>
</g>
<!-- ERROR Facebook Post&#45;&gt;ERROR Twitter VerifyTwitterToken -->
<g id="edge63" class="edge"><title>ERROR Facebook Post&#45;&gt;ERROR Twitter VerifyTwitterToken</title>
<path fill="none" stroke="black" d="M620.296,-1361.72C663.149,-1354.47 716.322,-1344.07 762.878,-1330.8 789.628,-1323.18 818.637,-1312.3 842.265,-1302.73"/>
<polygon fill="black" stroke="black" points="843.779,-1305.89 851.704,-1298.86 841.124,-1299.41 843.779,-1305.89"/>
</g>
<!-- PASS Twitter CanTweet -->
<g id="node16" class="node"><title>PASS Twitter CanTweet</title>
<path fill="white" stroke="white" d="M1027.97,-1016.8C1027.97,-1016.8 887.782,-1016.8 887.782,-1016.8 881.782,-1016.8 875.782,-1010.8 875.782,-1004.8 875.782,-1004.8 875.782,-992.8 875.782,-992.8 875.782,-986.8 881.782,-980.8 887.782,-980.8 887.782,-980.8 1027.97,-980.8 1027.97,-980.8 1033.97,-980.8 1039.97,-986.8 1039.97,-992.8 1039.97,-992.8 1039.97,-1004.8 1039.97,-1004.8 1039.97,-1010.8 1033.97,-1016.8 1027.97,-1016.8"/>
<text text-anchor="middle" x="957.878" y="-993.2" font-family="Helvetica,sans-Serif" font-size="14.00">PASS Twitter CanTweet</text>
</g>
<!-- PASS Twitter VerifyTwitterToken&#45;&gt;PASS Twitter CanTweet -->
<g id="edge64" class="edge"><title>PASS Twitter VerifyTwitterToken&#45;&gt;PASS Twitter CanTweet</title>
<path fill="none" stroke="black" d="M1047.99,-1168.76C1018.99,-1157.22 986.369,-1138.84 967.878,-1110.8 951.53,-1086.01 951.191,-1051.04 953.541,-1027.01"/>
<polygon fill="black" stroke="black" points="957.047,-1027.16 954.762,-1016.82 950.097,-1026.33 957.047,-1027.16"/>
</g>
<!-- FAIL Twitter CanTweet -->
<g id="node17" class="node"><title>FAIL Twitter CanTweet</title>
<path fill="white" stroke="white" d="M1201.95,-1016.8C1201.95,-1016.8 1069.81,-1016.8 1069.81,-1016.8 1063.81,-1016.8 1057.81,-1010.8 1057.81,-1004.8 1057.81,-1004.8 1057.81,-992.8 1057.81,-992.8 1057.81,-986.8 1063.81,-980.8 1069.81,-980.8 1069.81,-980.8 1201.95,-980.8 1201.95,-980.8 1207.95,-980.8 1213.95,-986.8 1213.95,-992.8 1213.95,-992.8 1213.95,-1004.8 1213.95,-1004.8 1213.95,-1010.8 1207.95,-1016.8 1201.95,-1016.8"/>
<text text-anchor="middle" x="1135.88" y="-993.2" font-family="Helvetica,sans-Serif" font-size="14.00">FAIL Twitter CanTweet</text>
</g>
<!-- PASS Twitter VerifyTwitterToken&#45;&gt;FAIL Twitter CanTweet -->
<g id="edge65" class="edge"><title>PASS Twitter VerifyTwitterToken&#45;&gt;FAIL Twitter CanTweet</title>
<path fill="none" stroke="black" d="M1132.3,-1168.8C1149.89,-1155.39 1171.87,-1134.96 1181.88,-1110.8 1194.05,-1081.41 1175.39,-1047.64 1158.32,-1025.14"/>
<polygon fill="black" stroke="black" points="1160.89,-1022.75 1151.92,-1017.1 1155.41,-1027.11 1160.89,-1022.75"/>
</g>
<!-- ERROR Twitter CanTweet -->
<g id="node18" class="node"><title>ERROR Twitter CanTweet</title>
<path fill="white" stroke="white" d="M1143.15,-1110.8C1143.15,-1110.8 988.603,-1110.8 988.603,-1110.8 982.603,-1110.8 976.603,-1104.8 976.603,-1098.8 976.603,-1098.8 976.603,-1086.8 976.603,-1086.8 976.603,-1080.8 982.603,-1074.8 988.603,-1074.8 988.603,-1074.8 1143.15,-1074.8 1143.15,-1074.8 1149.15,-1074.8 1155.15,-1080.8 1155.15,-1086.8 1155.15,-1086.8 1155.15,-1098.8 1155.15,-1098.8 1155.15,-1104.8 1149.15,-1110.8 1143.15,-1110.8"/>
<text text-anchor="middle" x="1065.88" y="-1087.2" font-family="Helvetica,sans-Serif" font-size="14.00">ERROR Twitter CanTweet</text>
</g>
<!-- PASS Twitter VerifyTwitterToken&#45;&gt;ERROR Twitter CanTweet -->
<g id="edge66" class="edge"><title>PASS Twitter VerifyTwitterToken&#45;&gt;ERROR Twitter CanTweet</title>
<path fill="none" stroke="black" d="M1099.17,-1168.5C1093.15,-1155 1084.7,-1136.03 1077.81,-1120.58"/>
<polygon fill="black" stroke="black" points="1080.82,-1118.74 1073.56,-1111.03 1074.43,-1121.59 1080.82,-1118.74"/>
</g>
<!-- ERROR Twitter VerifyTwitterToken&#45;&gt;PASS Twitter VerifyTwitterToken -->
<g id="edge67" class="edge"><title>ERROR Twitter VerifyTwitterToken&#45;&gt;PASS Twitter VerifyTwitterToken</title>
<path fill="none" stroke="black" d="M931,-1262.71C966.654,-1247.53 1018.9,-1225.27 1057.19,-1208.96"/>
<polygon fill="black" stroke="black" points="1058.78,-1212.09 1066.61,-1204.95 1056.03,-1205.65 1058.78,-1212.09"/>
</g>
<!-- ERROR Twitter VerifyTwitterToken&#45;&gt;FAIL Twitter VerifyTwitterToken -->
<g id="edge68" class="edge"><title>ERROR Twitter VerifyTwitterToken&#45;&gt;FAIL Twitter VerifyTwitterToken</title>
<path fill="none" stroke="black" d="M888.433,-1262.5C886.545,-1249.13 883.896,-1230.39 881.724,-1215.02"/>
<polygon fill="black" stroke="black" points="885.177,-1214.44 880.313,-1205.03 878.246,-1215.42 885.177,-1214.44"/>
</g>
<!-- ERROR Twitter VerifyTwitterToken&#45;&gt;ERROR Twitter VerifyTwitterToken -->
<g id="edge69" class="edge"><title>ERROR Twitter VerifyTwitterToken&#45;&gt;ERROR Twitter VerifyTwitterToken</title>
<path fill="none" stroke="black" d="M1005.39,-1294.93C1016.11,-1292.03 1022.88,-1287.32 1022.88,-1280.8 1022.88,-1276.52 1019.96,-1273.02 1014.93,-1270.3"/>
<polygon fill="black" stroke="black" points="1015.98,-1266.96 1005.39,-1266.67 1013.49,-1273.5 1015.98,-1266.96"/>
</g>
<!-- PASS Twitter ShouldTweet -->
<g id="node19" class="node"><title>PASS Twitter ShouldTweet</title>
<path fill="white" stroke="white" d="M966.907,-828.8C966.907,-828.8 808.85,-828.8 808.85,-828.8 802.85,-828.8 796.85,-822.8 796.85,-816.8 796.85,-816.8 796.85,-804.8 796.85,-804.8 796.85,-798.8 802.85,-792.8 808.85,-792.8 808.85,-792.8 966.907,-792.8 966.907,-792.8 972.907,-792.8 978.907,-798.8 978.907,-804.8 978.907,-804.8 978.907,-816.8 978.907,-816.8 978.907,-822.8 972.907,-828.8 966.907,-828.8"/>
<text text-anchor="middle" x="887.878" y="-805.2" font-family="Helvetica,sans-Serif" font-size="14.00">PASS Twitter ShouldTweet</text>
</g>
<!-- PASS Twitter CanTweet&#45;&gt;PASS Twitter ShouldTweet -->
<g id="edge70" class="edge"><title>PASS Twitter CanTweet&#45;&gt;PASS Twitter ShouldTweet</title>
<path fill="none" stroke="black" d="M916.613,-980.755C892.715,-968.475 864.699,-949.365 850.878,-922.8 836.413,-894.997 852.824,-860.388 868.148,-837.276"/>
<polygon fill="black" stroke="black" points="871.055,-839.224 873.901,-829.019 865.312,-835.223 871.055,-839.224"/>
</g>
<!-- FAIL Twitter ShouldTweet -->
<g id="node20" class="node"><title>FAIL Twitter ShouldTweet</title>
<path fill="white" stroke="white" d="M1165.88,-828.8C1165.88,-828.8 1015.87,-828.8 1015.87,-828.8 1009.87,-828.8 1003.87,-822.8 1003.87,-816.8 1003.87,-816.8 1003.87,-804.8 1003.87,-804.8 1003.87,-798.8 1009.87,-792.8 1015.87,-792.8 1015.87,-792.8 1165.88,-792.8 1165.88,-792.8 1171.88,-792.8 1177.88,-798.8 1177.88,-804.8 1177.88,-804.8 1177.88,-816.8 1177.88,-816.8 1177.88,-822.8 1171.88,-828.8 1165.88,-828.8"/>
<text text-anchor="middle" x="1090.88" y="-805.2" font-family="Helvetica,sans-Serif" font-size="14.00">FAIL Twitter ShouldTweet</text>
</g>
<!-- PASS Twitter CanTweet&#45;&gt;FAIL Twitter ShouldTweet -->
<g id="edge71" class="edge"><title>PASS Twitter CanTweet&#45;&gt;FAIL Twitter ShouldTweet</title>
<path fill="none" stroke="black" d="M1008.29,-980.719C1035.15,-968.854 1066.05,-950.182 1082.88,-922.8 1098.32,-897.678 1098.19,-863.057 1095.57,-839.193"/>
<polygon fill="black" stroke="black" points="1099.01,-838.516 1094.24,-829.058 1092.07,-839.429 1099.01,-838.516"/>
</g>
<!-- ERROR Twitter ShouldTweet -->
<g id="node21" class="node"><title>ERROR Twitter ShouldTweet</title>
<path fill="white" stroke="white" d="M1044.09,-922.8C1044.09,-922.8 871.67,-922.8 871.67,-922.8 865.67,-922.8 859.67,-916.8 859.67,-910.8 859.67,-910.8 859.67,-898.8 859.67,-898.8 859.67,-892.8 865.67,-886.8 871.67,-886.8 871.67,-886.8 1044.09,-886.8 1044.09,-886.8 1050.09,-886.8 1056.09,-892.8 1056.09,-898.8 1056.09,-898.8 1056.09,-910.8 1056.09,-910.8 1056.09,-916.8 1050.09,-922.8 1044.09,-922.8"/>
<text text-anchor="middle" x="957.878" y="-899.2" font-family="Helvetica,sans-Serif" font-size="14.00">ERROR Twitter ShouldTweet</text>
</g>
<!-- PASS Twitter CanTweet&#45;&gt;ERROR Twitter ShouldTweet -->
<g id="edge72" class="edge"><title>PASS Twitter CanTweet&#45;&gt;ERROR Twitter ShouldTweet</title>
<path fill="none" stroke="black" d="M957.878,-980.496C957.878,-967.26 957.878,-948.747 957.878,-933.463"/>
<polygon fill="black" stroke="black" points="961.378,-933.027 957.878,-923.027 954.378,-933.027 961.378,-933.027"/>
</g>
<!-- ERROR Twitter CanTweet&#45;&gt;PASS Twitter CanTweet -->
<g id="edge73" class="edge"><title>ERROR Twitter CanTweet&#45;&gt;PASS Twitter CanTweet</title>
<path fill="none" stroke="black" d="M1045.82,-1074.71C1028.95,-1060.34 1004.65,-1039.65 985.872,-1023.65"/>
<polygon fill="black" stroke="black" points="988.08,-1020.93 978.198,-1017.11 983.541,-1026.26 988.08,-1020.93"/>
</g>
<!-- ERROR Twitter CanTweet&#45;&gt;FAIL Twitter CanTweet -->
<g id="edge74" class="edge"><title>ERROR Twitter CanTweet&#45;&gt;FAIL Twitter CanTweet</title>
<path fill="none" stroke="black" d="M1079.04,-1074.5C1089.6,-1060.62 1104.58,-1040.94 1116.51,-1025.26"/>
<polygon fill="black" stroke="black" points="1119.5,-1027.1 1122.77,-1017.03 1113.93,-1022.87 1119.5,-1027.1"/>
</g>
<!-- ERROR Twitter CanTweet&#45;&gt;ERROR Twitter CanTweet -->
<g id="edge75" class="edge"><title>ERROR Twitter CanTweet&#45;&gt;ERROR Twitter CanTweet</title>
<path fill="none" stroke="black" d="M1155.25,-1107.95C1165.91,-1105.19 1172.88,-1100.14 1172.88,-1092.8 1172.88,-1087.98 1169.88,-1084.15 1164.8,-1081.31"/>
<polygon fill="black" stroke="black" points="1165.84,-1077.96 1155.25,-1077.65 1163.34,-1084.49 1165.84,-1077.96"/>
</g>
<!-- PASS Twitter Tweet -->
<g id="node22" class="node"><title>PASS Twitter Tweet</title>
<path fill="#00ee00" stroke="#00ee00" d="M901.028,-640.8C901.028,-640.8 786.729,-640.8 786.729,-640.8 780.729,-640.8 774.729,-634.8 774.729,-628.8 774.729,-628.8 774.729,-616.8 774.729,-616.8 774.729,-610.8 780.729,-604.8 786.729,-604.8 786.729,-604.8 901.028,-604.8 901.028,-604.8 907.028,-604.8 913.028,-610.8 913.028,-616.8 913.028,-616.8 913.028,-628.8 913.028,-628.8 913.028,-634.8 907.028,-640.8 901.028,-640.8"/>
<text text-anchor="middle" x="843.878" y="-617.2" font-family="Helvetica,sans-Serif" font-size="14.00">PASS Twitter Tweet</text>
</g>
<!-- PASS Twitter ShouldTweet&#45;&gt;PASS Twitter Tweet -->
<g id="edge76" class="edge"><title>PASS Twitter ShouldTweet&#45;&gt;PASS Twitter Tweet</title>
<path fill="none" stroke="black" d="M857.894,-792.747C838.223,-779.703 814.13,-759.734 802.878,-734.8 789.916,-706.075 807.21,-671.919 823.155,-649.154"/>
<polygon fill="black" stroke="black" points="826.03,-651.153 829.133,-641.023 820.39,-647.006 826.03,-651.153"/>
</g>
<!-- FAIL Twitter Tweet -->
<g id="node23" class="node"><title>FAIL Twitter Tweet</title>
<path fill="white" stroke="white" d="M1051,-640.8C1051,-640.8 944.753,-640.8 944.753,-640.8 938.753,-640.8 932.753,-634.8 932.753,-628.8 932.753,-628.8 932.753,-616.8 932.753,-616.8 932.753,-610.8 938.753,-604.8 944.753,-604.8 944.753,-604.8 1051,-604.8 1051,-604.8 1057,-604.8 1063,-610.8 1063,-616.8 1063,-616.8 1063,-628.8 1063,-628.8 1063,-634.8 1057,-640.8 1051,-640.8"/>
<text text-anchor="middle" x="997.878" y="-617.2" font-family="Helvetica,sans-Serif" font-size="14.00">FAIL Twitter Tweet</text>
</g>
<!-- PASS Twitter ShouldTweet&#45;&gt;FAIL Twitter Tweet -->
<g id="edge77" class="edge"><title>PASS Twitter ShouldTweet&#45;&gt;FAIL Twitter Tweet</title>
<path fill="none" stroke="black" d="M925.781,-792.777C948.853,-780.257 976.557,-760.878 990.878,-734.8 1005.06,-708.968 1004.82,-674.484 1002.32,-650.845"/>
<polygon fill="black" stroke="black" points="1005.77,-650.3 1001.05,-640.818 998.83,-651.178 1005.77,-650.3"/>
</g>
<!-- ERROR Twitter Tweet -->
<g id="node24" class="node"><title>ERROR Twitter Tweet</title>
<path fill="white" stroke="white" d="M952.207,-734.8C952.207,-734.8 823.549,-734.8 823.549,-734.8 817.549,-734.8 811.549,-728.8 811.549,-722.8 811.549,-722.8 811.549,-710.8 811.549,-710.8 811.549,-704.8 817.549,-698.8 823.549,-698.8 823.549,-698.8 952.207,-698.8 952.207,-698.8 958.207,-698.8 964.207,-704.8 964.207,-710.8 964.207,-710.8 964.207,-722.8 964.207,-722.8 964.207,-728.8 958.207,-734.8 952.207,-734.8"/>
<text text-anchor="middle" x="887.878" y="-711.2" font-family="Helvetica,sans-Serif" font-size="14.00">ERROR Twitter Tweet</text>
</g>
<!-- PASS Twitter ShouldTweet&#45;&gt;ERROR Twitter Tweet -->
<g id="edge78" class="edge"><title>PASS Twitter ShouldTweet&#45;&gt;ERROR Twitter Tweet</title>
<path fill="none" stroke="black" d="M887.878,-792.496C887.878,-779.26 887.878,-760.747 887.878,-745.463"/>
<polygon fill="black" stroke="black" points="891.378,-745.027 887.878,-735.027 884.378,-745.027 891.378,-745.027"/>
</g>
<!-- ERROR Twitter ShouldTweet&#45;&gt;PASS Twitter ShouldTweet -->
<g id="edge79" class="edge"><title>ERROR Twitter ShouldTweet&#45;&gt;PASS Twitter ShouldTweet</title>
<path fill="none" stroke="black" d="M944.712,-886.496C934.152,-872.617 919.178,-852.937 907.251,-837.261"/>
<polygon fill="black" stroke="black" points="909.826,-834.866 900.986,-829.027 904.256,-839.105 909.826,-834.866"/>
</g>
<!-- ERROR Twitter ShouldTweet&#45;&gt;FAIL Twitter ShouldTweet -->
<g id="edge80" class="edge"><title>ERROR Twitter ShouldTweet&#45;&gt;FAIL Twitter ShouldTweet</title>
<path fill="none" stroke="black" d="M982.583,-886.711C1003.63,-872.151 1034.08,-851.091 1057.33,-835.006"/>
<polygon fill="black" stroke="black" points="1059.62,-837.677 1065.85,-829.11 1055.64,-831.92 1059.62,-837.677"/>
</g>
<!-- ERROR Twitter ShouldTweet&#45;&gt;ERROR Twitter ShouldTweet -->
<g id="edge81" class="edge"><title>ERROR Twitter ShouldTweet&#45;&gt;ERROR Twitter ShouldTweet</title>
<path fill="none" stroke="black" d="M1056.05,-919.627C1066.88,-916.811 1073.88,-911.868 1073.88,-904.8 1073.88,-900.161 1070.87,-896.438 1065.73,-893.631"/>
<polygon fill="black" stroke="black" points="1066.64,-890.232 1056.05,-889.973 1064.16,-896.781 1066.64,-890.232"/>
</g>
<!-- PASS Twitter Tweet&#45;&gt;PASS Billing VerifyCreditCard -->
<g id="edge82" class="edge"><title>PASS Twitter Tweet&#45;&gt;PASS Billing VerifyCreditCard</title>
<path fill="none" stroke="black" d="M825.142,-604.573C816.926,-596.847 807.265,-587.526 798.878,-578.8 770.95,-549.74 773.29,-531.784 738.878,-510.8 706.192,-490.868 616.328,-469.633 543.94,-454.865"/>
<polygon fill="black" stroke="black" points="544.345,-451.376 533.85,-452.825 542.958,-458.237 544.345,-451.376"/>
</g>
<!-- PASS Twitter Tweet&#45;&gt;FAIL Billing VerifyCreditCard -->
<g id="edge83" class="edge"><title>PASS Twitter Tweet&#45;&gt;FAIL Billing VerifyCreditCard</title>
<path fill="none" stroke="black" d="M840.73,-604.402C835.648,-580.692 823.6,-538.068 798.878,-510.8 776.971,-486.636 745.439,-468.945 717.556,-456.834"/>
<polygon fill="black" stroke="black" points="718.835,-453.575 708.26,-452.939 716.131,-460.031 718.835,-453.575"/>
</g>
<!-- PASS Twitter Tweet&#45;&gt;ERROR Billing VerifyCreditCard -->
<g id="edge84" class="edge"><title>PASS Twitter Tweet&#45;&gt;ERROR Billing VerifyCreditCard</title>
<path fill="none" stroke="black" d="M799.484,-604.711C759.7,-589.397 701.238,-566.893 658.783,-550.55"/>
<polygon fill="black" stroke="black" points="660.029,-547.279 649.439,-546.953 657.514,-553.812 660.029,-547.279"/>
</g>
<!-- ERROR Twitter Tweet&#45;&gt;PASS Twitter Tweet -->
<g id="edge85" class="edge"><title>ERROR Twitter Tweet&#45;&gt;PASS Twitter Tweet</title>
<path fill="none" stroke="black" d="M879.602,-698.496C873.088,-684.874 863.9,-665.664 856.474,-650.136"/>
<polygon fill="black" stroke="black" points="859.589,-648.538 852.117,-641.027 853.274,-651.558 859.589,-648.538"/>
</g>
<!-- ERROR Twitter Tweet&#45;&gt;FAIL Twitter Tweet -->
<g id="edge86" class="edge"><title>ERROR Twitter Tweet&#45;&gt;FAIL Twitter Tweet</title>
<path fill="none" stroke="black" d="M908.311,-698.711C925.49,-684.343 950.236,-663.646 969.366,-647.647"/>
<polygon fill="black" stroke="black" points="971.757,-650.21 977.182,-641.11 967.266,-644.84 971.757,-650.21"/>
</g>
<!-- ERROR Twitter Tweet&#45;&gt;ERROR Twitter Tweet -->
<g id="edge87" class="edge"><title>ERROR Twitter Tweet&#45;&gt;ERROR Twitter Tweet</title>
<path fill="none" stroke="black" d="M964.225,-732.527C974.806,-729.937 981.878,-724.695 981.878,-716.8 981.878,-711.619 978.833,-707.581 973.748,-704.684"/>
<polygon fill="black" stroke="black" points="974.817,-701.346 964.225,-701.073 972.335,-707.891 974.817,-701.346"/>
</g>
<!-- PASS Billing BillCreditCard -->
<g id="node28" class="node"><title>PASS Billing BillCreditCard</title>
<path fill="white" stroke="white" d="M502.235,-264.8C502.235,-264.8 343.521,-264.8 343.521,-264.8 337.521,-264.8 331.521,-258.8 331.521,-252.8 331.521,-252.8 331.521,-240.8 331.521,-240.8 331.521,-234.8 337.521,-228.8 343.521,-228.8 343.521,-228.8 502.235,-228.8 502.235,-228.8 508.235,-228.8 514.235,-234.8 514.235,-240.8 514.235,-240.8 514.235,-252.8 514.235,-252.8 514.235,-258.8 508.235,-264.8 502.235,-264.8"/>
<text text-anchor="middle" x="422.878" y="-241.2" font-family="Helvetica,sans-Serif" font-size="14.00">PASS Billing BillCreditCard</text>
</g>
<!-- PASS Billing VerifyCreditCard&#45;&gt;PASS Billing BillCreditCard -->
<g id="edge88" class="edge"><title>PASS Billing VerifyCreditCard&#45;&gt;PASS Billing BillCreditCard</title>
<path fill="none" stroke="black" d="M420.42,-416.643C405.033,-402.872 385.55,-382.047 376.878,-358.8 365.759,-328.992 384.215,-295.303 400.954,-272.938"/>
<polygon fill="black" stroke="black" points="403.801,-274.98 407.22,-264.952 398.294,-270.659 403.801,-274.98"/>
</g>
<!-- FAIL Billing BillCreditCard -->
<g id="node29" class="node"><title>FAIL Billing BillCreditCard</title>
<path fill="white" stroke="white" d="M696.211,-264.8C696.211,-264.8 545.545,-264.8 545.545,-264.8 539.545,-264.8 533.545,-258.8 533.545,-252.8 533.545,-252.8 533.545,-240.8 533.545,-240.8 533.545,-234.8 539.545,-228.8 545.545,-228.8 545.545,-228.8 696.211,-228.8 696.211,-228.8 702.211,-228.8 708.211,-234.8 708.211,-240.8 708.211,-240.8 708.211,-252.8 708.211,-252.8 708.211,-258.8 702.211,-264.8 696.211,-264.8"/>
<text text-anchor="middle" x="620.878" y="-241.2" font-family="Helvetica,sans-Serif" font-size="14.00">FAIL Billing BillCreditCard</text>
</g>
<!-- PASS Billing VerifyCreditCard&#45;&gt;FAIL Billing BillCreditCard -->
<g id="edge89" class="edge"><title>PASS Billing VerifyCreditCard&#45;&gt;FAIL Billing BillCreditCard</title>
<path fill="none" stroke="black" d="M523.147,-416.754C555.605,-405.716 590.133,-387.768 610.878,-358.8 628.248,-334.545 628.322,-299.243 625.634,-274.998"/>
<polygon fill="black" stroke="black" points="629.096,-274.483 624.306,-265.033 622.158,-275.408 629.096,-274.483"/>
</g>
<!-- ERROR Billing BillCreditCard -->
<g id="node30" class="node"><title>ERROR Billing BillCreditCard</title>
<path fill="white" stroke="white" d="M571.914,-358.8C571.914,-358.8 397.842,-358.8 397.842,-358.8 391.842,-358.8 385.842,-352.8 385.842,-346.8 385.842,-346.8 385.842,-334.8 385.842,-334.8 385.842,-328.8 391.842,-322.8 397.842,-322.8 397.842,-322.8 571.914,-322.8 571.914,-322.8 577.914,-322.8 583.914,-328.8 583.914,-334.8 583.914,-334.8 583.914,-346.8 583.914,-346.8 583.914,-352.8 577.914,-358.8 571.914,-358.8"/>
<text text-anchor="middle" x="484.878" y="-335.2" font-family="Helvetica,sans-Serif" font-size="14.00">ERROR Billing BillCreditCard</text>
</g>
<!-- PASS Billing VerifyCreditCard&#45;&gt;ERROR Billing BillCreditCard -->
<g id="edge90" class="edge"><title>PASS Billing VerifyCreditCard&#45;&gt;ERROR Billing BillCreditCard</title>
<path fill="none" stroke="black" d="M449.966,-416.496C456.333,-402.874 465.311,-383.664 472.569,-368.136"/>
<polygon fill="black" stroke="black" points="475.763,-369.568 476.827,-359.027 469.422,-366.604 475.763,-369.568"/>
</g>
<!-- ERROR Billing VerifyCreditCard&#45;&gt;PASS Billing VerifyCreditCard -->
<g id="edge91" class="edge"><title>ERROR Billing VerifyCreditCard&#45;&gt;PASS Billing VerifyCreditCard</title>
<path fill="none" stroke="black" d="M574.601,-510.711C548.266,-495.847 509.931,-474.21 481.224,-458.007"/>
<polygon fill="black" stroke="black" points="482.698,-454.821 472.269,-452.953 479.258,-460.917 482.698,-454.821"/>
</g>
<!-- ERROR Billing VerifyCreditCard&#45;&gt;FAIL Billing VerifyCreditCard -->
<g id="edge92" class="edge"><title>ERROR Billing VerifyCreditCard&#45;&gt;FAIL Billing VerifyCreditCard</title>
<path fill="none" stroke="black" d="M614.471,-510.496C622.022,-496.874 632.671,-477.664 641.279,-462.136"/>
<polygon fill="black" stroke="black" points="644.541,-463.47 646.329,-453.027 638.419,-460.076 644.541,-463.47"/>
</g>
<!-- ERROR Billing VerifyCreditCard&#45;&gt;ERROR Billing VerifyCreditCard -->
<g id="edge93" class="edge"><title>ERROR Billing VerifyCreditCard&#45;&gt;ERROR Billing VerifyCreditCard</title>
<path fill="none" stroke="black" d="M712.008,-543.288C722.915,-540.422 729.878,-535.593 729.878,-528.8 729.878,-524.342 726.88,-520.73 721.735,-517.963"/>
<polygon fill="black" stroke="black" points="722.6,-514.55 712.008,-514.312 720.14,-521.103 722.6,-514.55"/>
</g>
<!-- PASS Billing SendBillingNotification -->
<g id="node31" class="node"><title>PASS Billing SendBillingNotification</title>
<path fill="gold" stroke="gold" d="M492.943,-76.8C492.943,-76.8 280.813,-76.8 280.813,-76.8 274.813,-76.8 268.813,-70.8 268.813,-64.8 268.813,-64.8 268.813,-52.8 268.813,-52.8 268.813,-46.8 274.813,-40.8 280.813,-40.8 280.813,-40.8 492.943,-40.8 492.943,-40.8 498.943,-40.8 504.943,-46.8 504.943,-52.8 504.943,-52.8 504.943,-64.8 504.943,-64.8 504.943,-70.8 498.943,-76.8 492.943,-76.8"/>
<text text-anchor="middle" x="386.878" y="-53.2" font-family="Helvetica,sans-Serif" font-size="14.00">PASS Billing SendBillingNotification</text>
</g>
<!-- PASS Billing BillCreditCard&#45;&gt;PASS Billing SendBillingNotification -->
<g id="edge94" class="edge"><title>PASS Billing BillCreditCard&#45;&gt;PASS Billing SendBillingNotification</title>
<path fill="none" stroke="black" d="M394.674,-228.703C375.838,-215.512 352.621,-195.387 341.878,-170.8 329.107,-141.569 347.8,-107.513 364.834,-84.9105"/>
<polygon fill="black" stroke="black" points="367.756,-86.8579 371.213,-76.8426 362.265,-82.5166 367.756,-86.8579"/>
</g>
<!-- FAIL Billing SendBillingNotification -->
<g id="node32" class="node"><title>FAIL Billing SendBillingNotification</title>
<path fill="white" stroke="white" d="M739.919,-76.8C739.919,-76.8 535.837,-76.8 535.837,-76.8 529.837,-76.8 523.837,-70.8 523.837,-64.8 523.837,-64.8 523.837,-52.8 523.837,-52.8 523.837,-46.8 529.837,-40.8 535.837,-40.8 535.837,-40.8 739.919,-40.8 739.919,-40.8 745.919,-40.8 751.919,-46.8 751.919,-52.8 751.919,-52.8 751.919,-64.8 751.919,-64.8 751.919,-70.8 745.919,-76.8 739.919,-76.8"/>
<text text-anchor="middle" x="637.878" y="-53.2" font-family="Helvetica,sans-Serif" font-size="14.00">FAIL Billing SendBillingNotification</text>
</g>
<!-- PASS Billing BillCreditCard&#45;&gt;FAIL Billing SendBillingNotification -->
<g id="edge95" class="edge"><title>PASS Billing BillCreditCard&#45;&gt;FAIL Billing SendBillingNotification</title>
<path fill="none" stroke="black" d="M492.962,-228.748C545.393,-214.487 610.854,-192.966 627.878,-170.8 646.153,-147.007 645.959,-111.315 642.964,-86.8673"/>
<polygon fill="black" stroke="black" points="646.407,-86.2184 641.502,-76.8274 639.48,-87.2275 646.407,-86.2184"/>
</g>
<!-- ERROR Billing SendBillingNotification -->
<g id="node33" class="node"><title>ERROR Billing SendBillingNotification</title>
<path fill="white" stroke="white" d="M589.122,-170.8C589.122,-170.8 362.634,-170.8 362.634,-170.8 356.634,-170.8 350.634,-164.8 350.634,-158.8 350.634,-158.8 350.634,-146.8 350.634,-146.8 350.634,-140.8 356.634,-134.8 362.634,-134.8 362.634,-134.8 589.122,-134.8 589.122,-134.8 595.122,-134.8 601.122,-140.8 601.122,-146.8 601.122,-146.8 601.122,-158.8 601.122,-158.8 601.122,-164.8 595.122,-170.8 589.122,-170.8"/>
<text text-anchor="middle" x="475.878" y="-147.2" font-family="Helvetica,sans-Serif" font-size="14.00">ERROR Billing SendBillingNotification</text>
</g>
<!-- PASS Billing BillCreditCard&#45;&gt;ERROR Billing SendBillingNotification -->
<g id="edge96" class="edge"><title>PASS Billing BillCreditCard&#45;&gt;ERROR Billing SendBillingNotification</title>
<path fill="none" stroke="black" d="M432.847,-228.496C440.768,-214.746 451.97,-195.301 460.959,-179.698"/>
<polygon fill="black" stroke="black" points="463.995,-181.439 465.954,-171.027 457.93,-177.945 463.995,-181.439"/>
</g>
<!-- ERROR Billing BillCreditCard&#45;&gt;PASS Billing BillCreditCard -->
<g id="edge97" class="edge"><title>ERROR Billing BillCreditCard&#45;&gt;PASS Billing BillCreditCard</title>
<path fill="none" stroke="black" d="M473.217,-322.496C463.951,-308.746 450.847,-289.301 440.331,-273.698"/>
<polygon fill="black" stroke="black" points="442.979,-271.364 434.488,-265.027 437.174,-275.276 442.979,-271.364"/>
</g>
<!-- ERROR Billing BillCreditCard&#45;&gt;FAIL Billing BillCreditCard -->
<g id="edge98" class="edge"><title>ERROR Billing BillCreditCard&#45;&gt;FAIL Billing BillCreditCard</title>
<path fill="none" stroke="black" d="M510.14,-322.711C531.759,-308.086 563.071,-286.905 586.887,-270.794"/>
<polygon fill="black" stroke="black" points="588.968,-273.612 595.29,-265.11 585.046,-267.814 588.968,-273.612"/>
</g>
<!-- ERROR Billing BillCreditCard&#45;&gt;ERROR Billing BillCreditCard -->
<g id="edge99" class="edge"><title>ERROR Billing BillCreditCard&#45;&gt;ERROR Billing BillCreditCard</title>
<path fill="none" stroke="black" d="M583.892,-355.627C594.822,-352.811 601.878,-347.868 601.878,-340.8 601.878,-336.051 598.693,-332.262 593.288,-329.432"/>
<polygon fill="black" stroke="black" points="594.486,-326.144 583.892,-325.973 592.067,-332.712 594.486,-326.144"/>
</g>
<!-- ERROR Billing SendBillingNotification&#45;&gt;PASS Billing SendBillingNotification -->
<g id="edge100" class="edge"><title>ERROR Billing SendBillingNotification&#45;&gt;PASS Billing SendBillingNotification</title>
<path fill="none" stroke="black" d="M459.138,-134.496C445.464,-120.36 425.967,-100.206 410.671,-84.3947"/>
<polygon fill="black" stroke="black" points="413.012,-81.7807 403.543,-77.0269 407.981,-86.6477 413.012,-81.7807"/>
</g>
<!-- ERROR Billing SendBillingNotification&#45;&gt;FAIL Billing SendBillingNotification -->
<g id="edge101" class="edge"><title>ERROR Billing SendBillingNotification&#45;&gt;FAIL Billing SendBillingNotification</title>
<path fill="none" stroke="black" d="M505.97,-134.711C532.143,-119.847 570.243,-98.2102 598.774,-82.0074"/>
<polygon fill="black" stroke="black" points="600.706,-84.935 607.674,-76.9532 597.25,-78.848 600.706,-84.935"/>
</g>
<!-- ERROR Billing SendBillingNotification&#45;&gt;ERROR Billing SendBillingNotification -->
<g id="edge102" class="edge"><title>ERROR Billing SendBillingNotification&#45;&gt;ERROR Billing SendBillingNotification</title>
<path fill="none" stroke="black" d="M601.379,-166.552C612.152,-163.626 618.878,-159.042 618.878,-152.8 618.878,-148.704 615.981,-145.321 610.945,-142.653"/>
<polygon fill="black" stroke="black" points="611.971,-139.299 601.379,-139.048 609.502,-145.849 611.971,-139.299"/>
</g>
<!-- PRE Blast -->
<g id="node34" class="node"><title>PRE Blast</title>
<path fill="white" stroke="white" d="M462.23,-2050.8C462.23,-2050.8 407.527,-2050.8 407.527,-2050.8 401.527,-2050.8 395.527,-2044.8 395.527,-2038.8 395.527,-2038.8 395.527,-2026.8 395.527,-2026.8 395.527,-2020.8 401.527,-2014.8 407.527,-2014.8 407.527,-2014.8 462.23,-2014.8 462.23,-2014.8 468.23,-2014.8 474.23,-2020.8 474.23,-2026.8 474.23,-2026.8 474.23,-2038.8 474.23,-2038.8 474.23,-2044.8 468.23,-2050.8 462.23,-2050.8"/>
<text text-anchor="middle" x="434.878" y="-2027.2" font-family="Helvetica,sans-Serif" font-size="14.00">PRE Blast</text>
</g>
<!-- PRE Blast&#45;&gt;PASS Facebook VerifyFacebookToken -->
<g id="edge1" class="edge"><title>PRE Blast&#45;&gt;PASS Facebook VerifyFacebookToken</title>
<path fill="none" stroke="black" d="M427.772,-2014.63C414.307,-1982.11 384.988,-1911.29 368.933,-1872.5"/>
<polygon fill="black" stroke="black" points="372.026,-1870.82 364.967,-1862.92 365.558,-1873.5 372.026,-1870.82"/>
</g>
<!-- PRE Blast&#45;&gt;FAIL Facebook VerifyFacebookToken -->
<g id="edge2" class="edge"><title>PRE Blast&#45;&gt;FAIL Facebook VerifyFacebookToken</title>
<path fill="none" stroke="black" d="M433.11,-2014.79C431.596,-1991.14 432.387,-1948.17 453.878,-1920.8 474.309,-1894.78 505.57,-1877.61 535.927,-1866.37"/>
<polygon fill="black" stroke="black" points="537.462,-1869.54 545.736,-1862.92 535.141,-1862.93 537.462,-1869.54"/>
</g>
<!-- PRE Blast&#45;&gt;ERROR Facebook VerifyFacebookToken -->
<g id="edge3" class="edge"><title>PRE Blast&#45;&gt;ERROR Facebook VerifyFacebookToken</title>
<path fill="none" stroke="black" d="M465.155,-2014.71C491.491,-1999.85 529.826,-1978.21 558.533,-1962.01"/>
<polygon fill="black" stroke="black" points="560.499,-1964.92 567.487,-1956.95 557.058,-1958.82 560.499,-1964.92"/>
</g>
</g>
</svg>
